<svg xmlns="http://www.w3.org/2000/svg" xmlns:xlink="http://www.w3.org/1999/xlink" width="1920" zoomAndPan="magnify" viewBox="0 0 1440 809.999993" height="1080" preserveAspectRatio="xMidYMid meet" version="1.0"><defs><g/><clipPath id="d086ec056e"><path d="M 93.964844 119.390625 L 1345.714844 119.390625 L 1345.714844 322 L 93.964844 322 Z M 93.964844 119.390625 " clip-rule="nonzero"/></clipPath><clipPath id="70c9fad461"><path d="M 93.964844 488 L 1345.714844 488 L 1345.714844 690.890625 L 93.964844 690.890625 Z M 93.964844 488 " clip-rule="nonzero"/></clipPath></defs><rect x="-144" width="1728" fill="#ffffff" y="-80.999999" height="971.999992" fill-opacity="1"/><rect x="-144" width="1728" fill="#ffffff" y="-80.999999" height="971.999992" fill-opacity="1"/><rect x="-144" width="1728" fill="#ffffff" y="-80.999999" height="971.999992" fill-opacity="1"/><g clip-path="url(#d086ec056e)"><path fill="#00bf7d" d="M 105.5 321.433594 L 105.5 128.046875 L 1334.175781 128.046875 L 1334.175781 321.433594 L 1345.710938 321.433594 L 1345.710938 119.390625 L 93.964844 119.390625 L 93.964844 321.433594 L 105.5 321.433594 " fill-opacity="1" fill-rule="nonzero"/></g><g clip-path="url(#70c9fad461)"><path fill="#00bf7d" d="M 1334.175781 488.84375 L 1334.175781 682.230469 L 105.5 682.230469 L 105.5 488.84375 L 93.964844 488.84375 L 93.964844 690.890625 L 1345.710938 690.890625 L 1345.710938 488.84375 L 1334.175781 488.84375 " fill-opacity="1" fill-rule="nonzero"/></g><g fill="#000000" fill-opacity="1"><g transform="translate(371.436642, 304.749996)"><g><path d="M 14.765625 -39.59375 L 5.578125 0 L 2.578125 0 L 11.765625 -39.59375 Z M 14.765625 -39.59375 "/></g></g></g><g fill="#000000" fill-opacity="1"><g transform="translate(386.616622, 304.749996)"><g/></g></g><g fill="#000000" fill-opacity="1"><g transform="translate(405.1566, 304.749996)"><g><path d="M 8.578125 0.484375 C 6.222656 0.484375 4.601562 -0.265625 3.71875 -1.765625 C 2.84375 -3.265625 2.703125 -5.316406 3.296875 -7.921875 L 11.640625 -43.796875 L 14.640625 -43.796875 L 6.234375 -7.734375 C 5.796875 -5.816406 5.859375 -4.40625 6.421875 -3.5 C 6.984375 -2.601562 8.0625 -2.15625 9.65625 -2.15625 C 10.34375 -2.15625 10.914062 -2.1875 11.375 -2.25 C 11.832031 -2.3125 12.257812 -2.398438 12.65625 -2.515625 L 11.9375 -0.125 C 11.457031 0.0820312 10.945312 0.234375 10.40625 0.328125 C 9.863281 0.429688 9.253906 0.484375 8.578125 0.484375 Z M 8.578125 0.484375 "/></g></g></g><g fill="#000000" fill-opacity="1"><g transform="translate(421.356581, 304.749996)"><g><path d="M 16.375 0.546875 C 13.582031 0.546875 11.191406 -0.0625 9.203125 -1.28125 C 7.222656 -2.507812 5.710938 -4.148438 4.671875 -6.203125 C 3.640625 -8.265625 3.125 -10.515625 3.125 -12.953125 C 3.125 -16.398438 3.769531 -19.441406 5.0625 -22.078125 C 6.363281 -24.722656 8.15625 -26.796875 10.4375 -28.296875 C 12.71875 -29.796875 15.378906 -30.546875 18.421875 -30.546875 C 21.296875 -30.546875 23.703125 -29.929688 25.640625 -28.703125 C 27.585938 -27.484375 29.070312 -25.863281 30.09375 -23.84375 C 31.113281 -21.820312 31.625 -19.570312 31.625 -17.09375 C 31.625 -13.695312 30.984375 -10.664062 29.703125 -8 C 28.421875 -5.34375 26.640625 -3.253906 24.359375 -1.734375 C 22.078125 -0.210938 19.414062 0.546875 16.375 0.546875 Z M 16.5 -2.046875 C 18.21875 -2.046875 19.816406 -2.394531 21.296875 -3.09375 C 22.773438 -3.789062 24.0625 -4.804688 25.15625 -6.140625 C 26.257812 -7.484375 27.101562 -9.078125 27.6875 -10.921875 C 28.269531 -12.765625 28.5625 -14.785156 28.5625 -16.984375 C 28.5625 -19.140625 28.171875 -21.035156 27.390625 -22.671875 C 26.609375 -24.316406 25.457031 -25.609375 23.9375 -26.546875 C 22.414062 -27.484375 20.535156 -27.953125 18.296875 -27.953125 C 16.578125 -27.953125 14.96875 -27.601562 13.46875 -26.90625 C 11.96875 -26.207031 10.675781 -25.195312 9.59375 -23.875 C 8.519531 -22.5625 7.679688 -20.984375 7.078125 -19.140625 C 6.484375 -17.296875 6.1875 -15.273438 6.1875 -13.078125 C 6.1875 -10.960938 6.582031 -9.070312 7.375 -7.40625 C 8.175781 -5.75 9.347656 -4.441406 10.890625 -3.484375 C 12.429688 -2.523438 14.300781 -2.046875 16.5 -2.046875 Z M 16.5 -2.046875 "/></g></g></g><g fill="#000000" fill-opacity="1"><g transform="translate(456.096551, 304.749996)"><g><path d="M 28.3125 -30 L 31.6875 -30 L 12.65625 0 L 9.59375 0 L 4.3125 -30 L 7.265625 -30 L 11.9375 -2.28125 L 11.15625 -2.515625 Z M 28.3125 -30 "/></g></g></g><g fill="#000000" fill-opacity="1"><g transform="translate(485.136527, 304.749996)"><g><path d="M 16.140625 0.546875 C 13.378906 0.546875 11.019531 -0.0507812 9.0625 -1.25 C 7.101562 -2.457031 5.625 -4.085938 4.625 -6.140625 C 3.625 -8.203125 3.125 -10.472656 3.125 -12.953125 C 3.125 -16.078125 3.722656 -18.976562 4.921875 -21.65625 C 6.117188 -24.34375 7.878906 -26.492188 10.203125 -28.109375 C 12.523438 -29.734375 15.320312 -30.546875 18.59375 -30.546875 C 21 -30.546875 23.050781 -30.023438 24.75 -28.984375 C 26.445312 -27.941406 27.753906 -26.53125 28.671875 -24.75 C 29.597656 -22.96875 30.0625 -20.9375 30.0625 -18.65625 C 30.0625 -18.0625 30.019531 -17.421875 29.9375 -16.734375 C 29.851562 -16.054688 29.710938 -15.378906 29.515625 -14.703125 L 4.6875 -14.703125 L 4.6875 -17.28125 L 28.140625 -17.28125 L 26.875 -16.3125 C 26.957031 -16.71875 27.019531 -17.117188 27.0625 -17.515625 C 27.101562 -17.921875 27.125 -18.320312 27.125 -18.71875 C 27.125 -20.476562 26.78125 -22.046875 26.09375 -23.421875 C 25.414062 -24.804688 24.425781 -25.90625 23.125 -26.71875 C 21.832031 -27.539062 20.265625 -27.953125 18.421875 -27.953125 C 16.378906 -27.953125 14.585938 -27.539062 13.046875 -26.71875 C 11.503906 -25.90625 10.210938 -24.785156 9.171875 -23.359375 C 8.140625 -21.941406 7.375 -20.332031 6.875 -18.53125 C 6.375 -16.738281 6.125 -14.863281 6.125 -12.90625 C 6.125 -10.78125 6.539062 -8.90625 7.375 -7.28125 C 8.21875 -5.664062 9.410156 -4.390625 10.953125 -3.453125 C 12.492188 -2.515625 14.300781 -2.046875 16.375 -2.046875 C 18.65625 -2.078125 20.601562 -2.601562 22.21875 -3.625 C 23.84375 -4.644531 25.132812 -5.957031 26.09375 -7.5625 L 28.5 -6 C 27.65625 -4.71875 26.625 -3.578125 25.40625 -2.578125 C 24.1875 -1.578125 22.804688 -0.804688 21.265625 -0.265625 C 19.722656 0.273438 18.015625 0.546875 16.140625 0.546875 Z M 16.140625 0.546875 "/></g></g></g><g fill="#000000" fill-opacity="1"><g transform="translate(518.196493, 304.749996)"><g/></g></g><g fill="#000000" fill-opacity="1"><g transform="translate(536.73647, 304.749996)"><g><path d="M 7.859375 0 L 4.859375 -30 L 7.734375 -30 L 10.203125 -3.84375 L 24.953125 -30 L 27.953125 -30 L 31.375 -3.71875 L 45.65625 -30 L 48.90625 -30 L 32.21875 0 L 29.21875 0 L 25.6875 -25.984375 L 10.921875 0 Z M 7.859375 0 "/></g></g></g><g fill="#000000" fill-opacity="1"><g transform="translate(583.776423, 304.749996)"><g><path d="M 1.734375 0 L 11.875 -43.796875 L 14.875 -43.796875 L 10.015625 -22.859375 L 9.421875 -22.6875 C 10.015625 -24.28125 10.890625 -25.664062 12.046875 -26.84375 C 13.210938 -28.03125 14.613281 -28.953125 16.25 -29.609375 C 17.894531 -30.265625 19.695312 -30.59375 21.65625 -30.59375 C 23.9375 -30.59375 25.875 -30.082031 27.46875 -29.0625 C 29.070312 -28.050781 30.191406 -26.59375 30.828125 -24.6875 C 31.472656 -22.789062 31.5 -20.519531 30.90625 -17.875 L 26.765625 0 L 23.765625 0 L 27.84375 -17.8125 C 28.601562 -21.0625 28.320312 -23.5625 27 -25.3125 C 25.675781 -27.070312 23.632812 -27.953125 20.875 -27.953125 C 18.675781 -27.953125 16.753906 -27.484375 15.109375 -26.546875 C 13.472656 -25.609375 12.113281 -24.304688 11.03125 -22.640625 C 9.957031 -20.984375 9.160156 -19.054688 8.640625 -16.859375 L 4.734375 0 Z M 1.734375 0 "/></g></g></g><g fill="#000000" fill-opacity="1"><g transform="translate(618.696396, 304.749996)"><g><path d="M 15.125 0.546875 C 12.675781 0.546875 10.550781 -0.0195312 8.75 -1.15625 C 6.957031 -2.300781 5.570312 -3.882812 4.59375 -5.90625 C 3.613281 -7.925781 3.125 -10.238281 3.125 -12.84375 C 3.125 -15.320312 3.484375 -17.628906 4.203125 -19.765625 C 4.921875 -21.910156 5.957031 -23.789062 7.3125 -25.40625 C 8.675781 -27.03125 10.296875 -28.300781 12.171875 -29.21875 C 14.054688 -30.132812 16.140625 -30.59375 18.421875 -30.59375 C 20.535156 -30.59375 22.363281 -30.203125 23.90625 -29.421875 C 25.445312 -28.648438 26.675781 -27.5625 27.59375 -26.15625 C 28.519531 -24.757812 29.0625 -23.117188 29.21875 -21.234375 L 31.265625 -30 L 34.265625 -30 L 27.296875 0 L 24.65625 0 L 25.984375 -6.484375 C 24.984375 -4.441406 23.550781 -2.757812 21.6875 -1.4375 C 19.832031 -0.113281 17.644531 0.546875 15.125 0.546875 Z M 15.90625 -2.046875 C 17.625 -2.046875 19.210938 -2.472656 20.671875 -3.328125 C 22.128906 -4.191406 23.394531 -5.375 24.46875 -6.875 C 25.550781 -8.375 26.394531 -10.0625 27 -11.9375 C 27.601562 -13.820312 27.90625 -15.78125 27.90625 -17.8125 C 27.90625 -20.09375 27.484375 -21.984375 26.640625 -23.484375 C 25.796875 -24.984375 24.675781 -26.113281 23.28125 -26.875 C 21.882812 -27.632812 20.304688 -28.015625 18.546875 -28.015625 C 16.703125 -28.015625 15.019531 -27.632812 13.5 -26.875 C 11.976562 -26.113281 10.65625 -25.050781 9.53125 -23.6875 C 8.414062 -22.332031 7.554688 -20.734375 6.953125 -18.890625 C 6.359375 -17.054688 6.0625 -15.039062 6.0625 -12.84375 C 6.0625 -10.5625 6.46875 -8.609375 7.28125 -6.984375 C 8.101562 -5.367188 9.253906 -4.140625 10.734375 -3.296875 C 12.210938 -2.460938 13.9375 -2.046875 15.90625 -2.046875 Z M 15.90625 -2.046875 "/></g></g></g><g fill="#000000" fill-opacity="1"><g transform="translate(654.696349, 304.749996)"><g><path d="M 12.71875 0.546875 C 10.84375 0.546875 9.300781 0.175781 8.09375 -0.5625 C 6.894531 -1.3125 6.078125 -2.375 5.640625 -3.75 C 5.203125 -5.125 5.179688 -6.796875 5.578125 -8.765625 L 12.125 -37.140625 L 15.421875 -38.09375 L 8.515625 -8.578125 C 8.035156 -6.421875 8.222656 -4.800781 9.078125 -3.71875 C 9.941406 -2.632812 11.296875 -2.09375 13.140625 -2.09375 C 14.140625 -2.09375 15.039062 -2.234375 15.84375 -2.515625 C 16.644531 -2.796875 17.382812 -3.175781 18.0625 -3.65625 L 18.71875 -1.203125 C 17.84375 -0.597656 16.90625 -0.15625 15.90625 0.125 C 14.90625 0.40625 13.84375 0.546875 12.71875 0.546875 Z M 3.71875 -27.421875 L 4.375 -30 L 23.15625 -30 L 22.5 -27.421875 Z M 3.71875 -27.421875 "/></g></g></g><g fill="#000000" fill-opacity="1"><g transform="translate(676.776326, 304.749996)"><g/></g></g><g fill="#000000" fill-opacity="1"><g transform="translate(695.316304, 304.749996)"><g><path d="M 14.765625 -39.59375 L 5.578125 0 L 2.578125 0 L 11.765625 -39.59375 Z M 14.765625 -39.59375 "/></g></g></g><g fill="#000000" fill-opacity="1"><g transform="translate(710.496273, 304.749996)"><g/></g></g><g fill="#000000" fill-opacity="1"><g transform="translate(729.03625, 304.749996)"><g><path d="M 15.125 0.546875 C 12.675781 0.546875 10.550781 -0.0195312 8.75 -1.15625 C 6.957031 -2.300781 5.570312 -3.882812 4.59375 -5.90625 C 3.613281 -7.925781 3.125 -10.238281 3.125 -12.84375 C 3.125 -15.320312 3.484375 -17.628906 4.203125 -19.765625 C 4.921875 -21.910156 5.957031 -23.789062 7.3125 -25.40625 C 8.675781 -27.03125 10.296875 -28.300781 12.171875 -29.21875 C 14.054688 -30.132812 16.140625 -30.59375 18.421875 -30.59375 C 20.503906 -30.59375 22.320312 -30.210938 23.875 -29.453125 C 25.4375 -28.691406 26.675781 -27.601562 27.59375 -26.1875 C 28.519531 -24.769531 29.0625 -23.0625 29.21875 -21.0625 L 34.4375 -43.796875 L 37.4375 -43.796875 L 27.296875 0 L 24.65625 0 L 25.984375 -6.484375 C 24.984375 -4.441406 23.550781 -2.757812 21.6875 -1.4375 C 19.832031 -0.113281 17.644531 0.546875 15.125 0.546875 Z M 15.84375 -2.046875 C 17.601562 -2.046875 19.222656 -2.472656 20.703125 -3.328125 C 22.179688 -4.191406 23.445312 -5.375 24.5 -6.875 C 25.5625 -8.375 26.394531 -10.0625 27 -11.9375 C 27.601562 -13.820312 27.90625 -15.78125 27.90625 -17.8125 C 27.90625 -20.09375 27.484375 -21.984375 26.640625 -23.484375 C 25.796875 -24.984375 24.675781 -26.113281 23.28125 -26.875 C 21.882812 -27.632812 20.304688 -28.015625 18.546875 -28.015625 C 16.703125 -28.015625 15.019531 -27.632812 13.5 -26.875 C 11.976562 -26.113281 10.65625 -25.050781 9.53125 -23.6875 C 8.414062 -22.332031 7.554688 -20.734375 6.953125 -18.890625 C 6.359375 -17.054688 6.0625 -15.039062 6.0625 -12.84375 C 6.0625 -10.5625 6.46875 -8.609375 7.28125 -6.984375 C 8.101562 -5.367188 9.253906 -4.140625 10.734375 -3.296875 C 12.210938 -2.460938 13.914062 -2.046875 15.84375 -2.046875 Z M 15.84375 -2.046875 "/></g></g></g><g fill="#000000" fill-opacity="1"><g transform="translate(765.036203, 304.749996)"><g><path d="M 16.375 0.546875 C 13.582031 0.546875 11.191406 -0.0625 9.203125 -1.28125 C 7.222656 -2.507812 5.710938 -4.148438 4.671875 -6.203125 C 3.640625 -8.265625 3.125 -10.515625 3.125 -12.953125 C 3.125 -16.398438 3.769531 -19.441406 5.0625 -22.078125 C 6.363281 -24.722656 8.15625 -26.796875 10.4375 -28.296875 C 12.71875 -29.796875 15.378906 -30.546875 18.421875 -30.546875 C 21.296875 -30.546875 23.703125 -29.929688 25.640625 -28.703125 C 27.585938 -27.484375 29.070312 -25.863281 30.09375 -23.84375 C 31.113281 -21.820312 31.625 -19.570312 31.625 -17.09375 C 31.625 -13.695312 30.984375 -10.664062 29.703125 -8 C 28.421875 -5.34375 26.640625 -3.253906 24.359375 -1.734375 C 22.078125 -0.210938 19.414062 0.546875 16.375 0.546875 Z M 16.5 -2.046875 C 18.21875 -2.046875 19.816406 -2.394531 21.296875 -3.09375 C 22.773438 -3.789062 24.0625 -4.804688 25.15625 -6.140625 C 26.257812 -7.484375 27.101562 -9.078125 27.6875 -10.921875 C 28.269531 -12.765625 28.5625 -14.785156 28.5625 -16.984375 C 28.5625 -19.140625 28.171875 -21.035156 27.390625 -22.671875 C 26.609375 -24.316406 25.457031 -25.609375 23.9375 -26.546875 C 22.414062 -27.484375 20.535156 -27.953125 18.296875 -27.953125 C 16.578125 -27.953125 14.96875 -27.601562 13.46875 -26.90625 C 11.96875 -26.207031 10.675781 -25.195312 9.59375 -23.875 C 8.519531 -22.5625 7.679688 -20.984375 7.078125 -19.140625 C 6.484375 -17.296875 6.1875 -15.273438 6.1875 -13.078125 C 6.1875 -10.960938 6.582031 -9.070312 7.375 -7.40625 C 8.175781 -5.75 9.347656 -4.441406 10.890625 -3.484375 C 12.429688 -2.523438 14.300781 -2.046875 16.5 -2.046875 Z M 16.5 -2.046875 "/></g></g></g><g fill="#000000" fill-opacity="1"><g transform="translate(799.776161, 304.749996)"><g/></g></g><g fill="#000000" fill-opacity="1"><g transform="translate(818.316138, 304.749996)"><g><path d="M 15.125 0.546875 C 12.675781 0.546875 10.550781 -0.0195312 8.75 -1.15625 C 6.957031 -2.300781 5.570312 -3.882812 4.59375 -5.90625 C 3.613281 -7.925781 3.125 -10.238281 3.125 -12.84375 C 3.125 -15.320312 3.484375 -17.628906 4.203125 -19.765625 C 4.921875 -21.910156 5.957031 -23.789062 7.3125 -25.40625 C 8.675781 -27.03125 10.296875 -28.300781 12.171875 -29.21875 C 14.054688 -30.132812 16.140625 -30.59375 18.421875 -30.59375 C 20.535156 -30.59375 22.363281 -30.203125 23.90625 -29.421875 C 25.445312 -28.648438 26.675781 -27.5625 27.59375 -26.15625 C 28.519531 -24.757812 29.0625 -23.117188 29.21875 -21.234375 L 31.265625 -30 L 34.265625 -30 L 27.296875 0 L 24.65625 0 L 25.984375 -6.484375 C 24.984375 -4.441406 23.550781 -2.757812 21.6875 -1.4375 C 19.832031 -0.113281 17.644531 0.546875 15.125 0.546875 Z M 15.90625 -2.046875 C 17.625 -2.046875 19.210938 -2.472656 20.671875 -3.328125 C 22.128906 -4.191406 23.394531 -5.375 24.46875 -6.875 C 25.550781 -8.375 26.394531 -10.0625 27 -11.9375 C 27.601562 -13.820312 27.90625 -15.78125 27.90625 -17.8125 C 27.90625 -20.09375 27.484375 -21.984375 26.640625 -23.484375 C 25.796875 -24.984375 24.675781 -26.113281 23.28125 -26.875 C 21.882812 -27.632812 20.304688 -28.015625 18.546875 -28.015625 C 16.703125 -28.015625 15.019531 -27.632812 13.5 -26.875 C 11.976562 -26.113281 10.65625 -25.050781 9.53125 -23.6875 C 8.414062 -22.332031 7.554688 -20.734375 6.953125 -18.890625 C 6.359375 -17.054688 6.0625 -15.039062 6.0625 -12.84375 C 6.0625 -10.5625 6.46875 -8.609375 7.28125 -6.984375 C 8.101562 -5.367188 9.253906 -4.140625 10.734375 -3.296875 C 12.210938 -2.460938 13.9375 -2.046875 15.90625 -2.046875 Z M 15.90625 -2.046875 "/></g></g></g><g fill="#000000" fill-opacity="1"><g transform="translate(854.31609, 304.749996)"><g><path d="M 1.734375 0 L 8.703125 -30 L 11.34375 -30 L 9.84375 -22.5 L 9.421875 -22.6875 C 10.265625 -25.125 11.773438 -27.050781 13.953125 -28.46875 C 16.128906 -29.882812 18.695312 -30.59375 21.65625 -30.59375 C 24.019531 -30.59375 25.988281 -30.082031 27.5625 -29.0625 C 29.144531 -28.050781 30.242188 -26.59375 30.859375 -24.6875 C 31.484375 -22.789062 31.5 -20.519531 30.90625 -17.875 L 26.765625 0 L 23.765625 0 L 27.84375 -17.8125 C 28.601562 -21.0625 28.320312 -23.5625 27 -25.3125 C 25.675781 -27.070312 23.632812 -27.953125 20.875 -27.953125 C 18.675781 -27.953125 16.753906 -27.484375 15.109375 -26.546875 C 13.472656 -25.609375 12.113281 -24.304688 11.03125 -22.640625 C 9.957031 -20.984375 9.160156 -19.054688 8.640625 -16.859375 L 4.734375 0 Z M 1.734375 0 "/></g></g></g><g fill="#000000" fill-opacity="1"><g transform="translate(889.236041, 304.749996)"><g><path d="M 15.125 0.546875 C 12.675781 0.546875 10.550781 -0.0195312 8.75 -1.15625 C 6.957031 -2.300781 5.570312 -3.882812 4.59375 -5.90625 C 3.613281 -7.925781 3.125 -10.238281 3.125 -12.84375 C 3.125 -15.320312 3.484375 -17.628906 4.203125 -19.765625 C 4.921875 -21.910156 5.957031 -23.789062 7.3125 -25.40625 C 8.675781 -27.03125 10.296875 -28.300781 12.171875 -29.21875 C 14.054688 -30.132812 16.140625 -30.59375 18.421875 -30.59375 C 20.503906 -30.59375 22.320312 -30.210938 23.875 -29.453125 C 25.4375 -28.691406 26.675781 -27.601562 27.59375 -26.1875 C 28.519531 -24.769531 29.0625 -23.0625 29.21875 -21.0625 L 34.4375 -43.796875 L 37.4375 -43.796875 L 27.296875 0 L 24.65625 0 L 25.984375 -6.484375 C 24.984375 -4.441406 23.550781 -2.757812 21.6875 -1.4375 C 19.832031 -0.113281 17.644531 0.546875 15.125 0.546875 Z M 15.84375 -2.046875 C 17.601562 -2.046875 19.222656 -2.472656 20.703125 -3.328125 C 22.179688 -4.191406 23.445312 -5.375 24.5 -6.875 C 25.5625 -8.375 26.394531 -10.0625 27 -11.9375 C 27.601562 -13.820312 27.90625 -15.78125 27.90625 -17.8125 C 27.90625 -20.09375 27.484375 -21.984375 26.640625 -23.484375 C 25.796875 -24.984375 24.675781 -26.113281 23.28125 -26.875 C 21.882812 -27.632812 20.304688 -28.015625 18.546875 -28.015625 C 16.703125 -28.015625 15.019531 -27.632812 13.5 -26.875 C 11.976562 -26.113281 10.65625 -25.050781 9.53125 -23.6875 C 8.414062 -22.332031 7.554688 -20.734375 6.953125 -18.890625 C 6.359375 -17.054688 6.0625 -15.039062 6.0625 -12.84375 C 6.0625 -10.5625 6.46875 -8.609375 7.28125 -6.984375 C 8.101562 -5.367188 9.253906 -4.140625 10.734375 -3.296875 C 12.210938 -2.460938 13.914062 -2.046875 15.84375 -2.046875 Z M 15.84375 -2.046875 "/></g></g></g><g fill="#000000" fill-opacity="1"><g transform="translate(925.235994, 304.749996)"><g/></g></g><g fill="#000000" fill-opacity="1"><g transform="translate(943.775971, 304.749996)"><g><path d="M 1.734375 0 L 8.703125 -30 L 11.34375 -30 L 9.84375 -22.5 L 9.421875 -22.6875 C 10.265625 -25.125 11.765625 -27.050781 13.921875 -28.46875 C 16.078125 -29.882812 18.632812 -30.59375 21.59375 -30.59375 C 23.875 -30.59375 25.765625 -30.082031 27.265625 -29.0625 C 28.765625 -28.050781 29.804688 -26.59375 30.390625 -24.6875 C 30.972656 -22.789062 30.941406 -20.5 30.296875 -17.8125 L 26.15625 0 L 23.15625 0 L 27.296875 -17.765625 C 28.054688 -21.046875 27.835938 -23.5625 26.640625 -25.3125 C 25.441406 -27.070312 23.5 -27.953125 20.8125 -27.953125 C 18.613281 -27.953125 16.691406 -27.484375 15.046875 -26.546875 C 13.410156 -25.609375 12.0625 -24.304688 11 -22.640625 C 9.945312 -20.984375 9.160156 -19.054688 8.640625 -16.859375 L 4.734375 0 Z M 44.640625 0 L 48.71875 -17.765625 C 49.476562 -21.046875 49.257812 -23.5625 48.0625 -25.3125 C 46.863281 -27.070312 44.921875 -27.953125 42.234375 -27.953125 C 40.035156 -27.953125 38.101562 -27.472656 36.4375 -26.515625 C 34.78125 -25.554688 33.421875 -24.238281 32.359375 -22.5625 C 31.304688 -20.882812 30.519531 -18.925781 30 -16.6875 L 29.875 -21.78125 C 31 -24.582031 32.703125 -26.75 34.984375 -28.28125 C 37.265625 -29.820312 39.941406 -30.59375 43.015625 -30.59375 C 45.296875 -30.59375 47.195312 -30.082031 48.71875 -29.0625 C 50.238281 -28.050781 51.28125 -26.59375 51.84375 -24.6875 C 52.40625 -22.789062 52.363281 -20.5 51.71875 -17.8125 L 47.640625 0 Z M 44.640625 0 "/></g></g></g><g fill="#000000" fill-opacity="1"><g transform="translate(999.875913, 304.749996)"><g><path d="M -0.484375 12.90625 C -1.796875 12.90625 -2.921875 12.734375 -3.859375 12.390625 C -4.804688 12.046875 -5.539062 11.554688 -6.0625 10.921875 L -4.734375 8.515625 C -3.660156 9.679688 -2.265625 10.265625 -0.546875 10.265625 C 0.859375 10.265625 2.128906 9.84375 3.265625 9 C 4.410156 8.15625 5.582031 6.773438 6.78125 4.859375 L 9.90625 -0.125 L 4.5625 -30 L 7.5 -30 L 11.28125 -8.40625 L 12.0625 -3.296875 L 15.0625 -8.34375 L 28.5625 -30 L 32.046875 -30 L 9.1875 5.9375 C 8.144531 7.613281 7.101562 8.960938 6.0625 9.984375 C 5.019531 11.003906 3.96875 11.742188 2.90625 12.203125 C 1.84375 12.671875 0.710938 12.90625 -0.484375 12.90625 Z M -0.484375 12.90625 "/></g></g></g><g fill="#000000" fill-opacity="1"><g transform="translate(221.624146, 388.749992)"><g><path d="M 16.140625 0.546875 C 13.535156 0.546875 11.253906 -0.03125 9.296875 -1.1875 C 7.335938 -2.351562 5.816406 -3.957031 4.734375 -6 C 3.660156 -8.039062 3.125 -10.359375 3.125 -12.953125 C 3.125 -16.316406 3.757812 -19.316406 5.03125 -21.953125 C 6.3125 -24.597656 8.113281 -26.691406 10.4375 -28.234375 C 12.757812 -29.773438 15.476562 -30.546875 18.59375 -30.546875 C 20.675781 -30.546875 22.523438 -30.171875 24.140625 -29.421875 C 25.765625 -28.679688 27.097656 -27.628906 28.140625 -26.265625 C 29.179688 -24.910156 29.878906 -23.335938 30.234375 -21.546875 L 27.1875 -20.8125 C 26.820312 -22.9375 25.910156 -24.65625 24.453125 -25.96875 C 22.992188 -27.289062 21.003906 -27.953125 18.484375 -27.953125 C 16.597656 -27.953125 14.90625 -27.582031 13.40625 -26.84375 C 11.90625 -26.101562 10.613281 -25.050781 9.53125 -23.6875 C 8.457031 -22.332031 7.628906 -20.753906 7.046875 -18.953125 C 6.472656 -17.160156 6.1875 -15.203125 6.1875 -13.078125 C 6.1875 -10.878906 6.613281 -8.945312 7.46875 -7.28125 C 8.332031 -5.625 9.519531 -4.335938 11.03125 -3.421875 C 12.550781 -2.503906 14.351562 -2.046875 16.4375 -2.046875 C 18.4375 -2.046875 20.242188 -2.570312 21.859375 -3.625 C 23.484375 -4.6875 24.675781 -6.117188 25.4375 -7.921875 L 28.265625 -6.84375 C 27.222656 -4.5625 25.640625 -2.757812 23.515625 -1.4375 C 21.398438 -0.113281 18.941406 0.546875 16.140625 0.546875 Z M 16.140625 0.546875 "/></g></g></g><g fill="#000000" fill-opacity="1"><g transform="translate(253.304114, 388.749992)"><g><path d="M 13.6875 0.546875 C 11.28125 0.546875 9.242188 0.046875 7.578125 -0.953125 C 5.921875 -1.953125 4.773438 -3.410156 4.140625 -5.328125 C 3.503906 -7.253906 3.484375 -9.554688 4.078125 -12.234375 L 8.21875 -30 L 11.21875 -30 L 7.140625 -12.234375 C 6.335938 -8.953125 6.625 -6.441406 8 -4.703125 C 9.382812 -2.960938 11.5 -2.09375 14.34375 -2.09375 C 16.457031 -2.09375 18.3125 -2.550781 19.90625 -3.46875 C 21.507812 -4.394531 22.84375 -5.695312 23.90625 -7.375 C 24.96875 -9.0625 25.738281 -10.984375 26.21875 -13.140625 L 30.125 -30 L 33.125 -30 L 26.15625 0 L 23.515625 0 L 25.015625 -7.5 L 25.5 -7.3125 C 24.582031 -4.875 23.082031 -2.953125 21 -1.546875 C 18.914062 -0.148438 16.476562 0.546875 13.6875 0.546875 Z M 13.6875 0.546875 "/></g></g></g><g fill="#000000" fill-opacity="1"><g transform="translate(288.164075, 388.749992)"><g><path d="M 14.640625 0.65625 C 12.242188 0.65625 10.125 0.273438 8.28125 -0.484375 C 6.4375 -1.242188 4.9375 -2.300781 3.78125 -3.65625 C 2.625 -5.019531 1.84375 -6.617188 1.4375 -8.453125 L 4.265625 -9.65625 C 4.742188 -7.21875 5.863281 -5.328125 7.625 -3.984375 C 9.382812 -2.648438 11.742188 -1.984375 14.703125 -1.984375 C 17.265625 -1.984375 19.242188 -2.5625 20.640625 -3.71875 C 22.035156 -4.875 22.734375 -6.351562 22.734375 -8.15625 C 22.734375 -9.4375 22.375 -10.457031 21.65625 -11.21875 C 20.9375 -11.976562 19.757812 -12.597656 18.125 -13.078125 L 12.421875 -14.703125 C 10.097656 -15.335938 8.335938 -16.273438 7.140625 -17.515625 C 5.941406 -18.753906 5.34375 -20.273438 5.34375 -22.078125 C 5.34375 -23.753906 5.800781 -25.222656 6.71875 -26.484375 C 7.632812 -27.742188 8.921875 -28.742188 10.578125 -29.484375 C 12.242188 -30.222656 14.175781 -30.59375 16.375 -30.59375 C 19.257812 -30.59375 21.769531 -29.929688 23.90625 -28.609375 C 26.050781 -27.296875 27.441406 -25.28125 28.078125 -22.5625 L 25.375 -21.296875 C 25.0625 -22.773438 24.472656 -24.015625 23.609375 -25.015625 C 22.742188 -26.015625 21.671875 -26.753906 20.390625 -27.234375 C 19.117188 -27.710938 17.703125 -27.953125 16.140625 -27.953125 C 13.660156 -27.953125 11.726562 -27.441406 10.34375 -26.421875 C 8.96875 -25.410156 8.28125 -24.0625 8.28125 -22.375 C 8.28125 -20.976562 8.726562 -19.890625 9.625 -19.109375 C 10.53125 -18.328125 11.722656 -17.71875 13.203125 -17.28125 L 19.3125 -15.546875 C 21.394531 -14.941406 22.976562 -14.054688 24.0625 -12.890625 C 25.144531 -11.734375 25.6875 -10.273438 25.6875 -8.515625 C 25.6875 -6.679688 25.210938 -5.070312 24.265625 -3.6875 C 23.328125 -2.3125 22.023438 -1.242188 20.359375 -0.484375 C 18.703125 0.273438 16.796875 0.65625 14.640625 0.65625 Z M 14.640625 0.65625 "/></g></g></g><g fill="#000000" fill-opacity="1"><g transform="translate(318.22404, 388.749992)"><g><path d="M 12.71875 0.546875 C 10.84375 0.546875 9.300781 0.175781 8.09375 -0.5625 C 6.894531 -1.3125 6.078125 -2.375 5.640625 -3.75 C 5.203125 -5.125 5.179688 -6.796875 5.578125 -8.765625 L 12.125 -37.140625 L 15.421875 -38.09375 L 8.515625 -8.578125 C 8.035156 -6.421875 8.222656 -4.800781 9.078125 -3.71875 C 9.941406 -2.632812 11.296875 -2.09375 13.140625 -2.09375 C 14.140625 -2.09375 15.039062 -2.234375 15.84375 -2.515625 C 16.644531 -2.796875 17.382812 -3.175781 18.0625 -3.65625 L 18.71875 -1.203125 C 17.84375 -0.597656 16.90625 -0.15625 15.90625 0.125 C 14.90625 0.40625 13.84375 0.546875 12.71875 0.546875 Z M 3.71875 -27.421875 L 4.375 -30 L 23.15625 -30 L 22.5 -27.421875 Z M 3.71875 -27.421875 "/></g></g></g><g fill="#000000" fill-opacity="1"><g transform="translate(340.304018, 388.749992)"><g><path d="M 16.375 0.546875 C 13.582031 0.546875 11.191406 -0.0625 9.203125 -1.28125 C 7.222656 -2.507812 5.710938 -4.148438 4.671875 -6.203125 C 3.640625 -8.265625 3.125 -10.515625 3.125 -12.953125 C 3.125 -16.398438 3.769531 -19.441406 5.0625 -22.078125 C 6.363281 -24.722656 8.15625 -26.796875 10.4375 -28.296875 C 12.71875 -29.796875 15.378906 -30.546875 18.421875 -30.546875 C 21.296875 -30.546875 23.703125 -29.929688 25.640625 -28.703125 C 27.585938 -27.484375 29.070312 -25.863281 30.09375 -23.84375 C 31.113281 -21.820312 31.625 -19.570312 31.625 -17.09375 C 31.625 -13.695312 30.984375 -10.664062 29.703125 -8 C 28.421875 -5.34375 26.640625 -3.253906 24.359375 -1.734375 C 22.078125 -0.210938 19.414062 0.546875 16.375 0.546875 Z M 16.5 -2.046875 C 18.21875 -2.046875 19.816406 -2.394531 21.296875 -3.09375 C 22.773438 -3.789062 24.0625 -4.804688 25.15625 -6.140625 C 26.257812 -7.484375 27.101562 -9.078125 27.6875 -10.921875 C 28.269531 -12.765625 28.5625 -14.785156 28.5625 -16.984375 C 28.5625 -19.140625 28.171875 -21.035156 27.390625 -22.671875 C 26.609375 -24.316406 25.457031 -25.609375 23.9375 -26.546875 C 22.414062 -27.484375 20.535156 -27.953125 18.296875 -27.953125 C 16.578125 -27.953125 14.96875 -27.601562 13.46875 -26.90625 C 11.96875 -26.207031 10.675781 -25.195312 9.59375 -23.875 C 8.519531 -22.5625 7.679688 -20.984375 7.078125 -19.140625 C 6.484375 -17.296875 6.1875 -15.273438 6.1875 -13.078125 C 6.1875 -10.960938 6.582031 -9.070312 7.375 -7.40625 C 8.175781 -5.75 9.347656 -4.441406 10.890625 -3.484375 C 12.429688 -2.523438 14.300781 -2.046875 16.5 -2.046875 Z M 16.5 -2.046875 "/></g></g></g><g fill="#000000" fill-opacity="1"><g transform="translate(375.043988, 388.749992)"><g><path d="M 1.734375 0 L 8.703125 -30 L 11.34375 -30 L 9.84375 -22.5 L 9.421875 -22.6875 C 10.265625 -25.125 11.765625 -27.050781 13.921875 -28.46875 C 16.078125 -29.882812 18.632812 -30.59375 21.59375 -30.59375 C 23.875 -30.59375 25.765625 -30.082031 27.265625 -29.0625 C 28.765625 -28.050781 29.804688 -26.59375 30.390625 -24.6875 C 30.972656 -22.789062 30.941406 -20.5 30.296875 -17.8125 L 26.15625 0 L 23.15625 0 L 27.296875 -17.765625 C 28.054688 -21.046875 27.835938 -23.5625 26.640625 -25.3125 C 25.441406 -27.070312 23.5 -27.953125 20.8125 -27.953125 C 18.613281 -27.953125 16.691406 -27.484375 15.046875 -26.546875 C 13.410156 -25.609375 12.0625 -24.304688 11 -22.640625 C 9.945312 -20.984375 9.160156 -19.054688 8.640625 -16.859375 L 4.734375 0 Z M 44.640625 0 L 48.71875 -17.765625 C 49.476562 -21.046875 49.257812 -23.5625 48.0625 -25.3125 C 46.863281 -27.070312 44.921875 -27.953125 42.234375 -27.953125 C 40.035156 -27.953125 38.101562 -27.472656 36.4375 -26.515625 C 34.78125 -25.554688 33.421875 -24.238281 32.359375 -22.5625 C 31.304688 -20.882812 30.519531 -18.925781 30 -16.6875 L 29.875 -21.78125 C 31 -24.582031 32.703125 -26.75 34.984375 -28.28125 C 37.265625 -29.820312 39.941406 -30.59375 43.015625 -30.59375 C 45.296875 -30.59375 47.195312 -30.082031 48.71875 -29.0625 C 50.238281 -28.050781 51.28125 -26.59375 51.84375 -24.6875 C 52.40625 -22.789062 52.363281 -20.5 51.71875 -17.8125 L 47.640625 0 Z M 44.640625 0 "/></g></g></g><g fill="#000000" fill-opacity="1"><g transform="translate(431.143942, 388.749992)"><g><path d="M 16.140625 0.546875 C 13.378906 0.546875 11.019531 -0.0507812 9.0625 -1.25 C 7.101562 -2.457031 5.625 -4.085938 4.625 -6.140625 C 3.625 -8.203125 3.125 -10.472656 3.125 -12.953125 C 3.125 -16.078125 3.722656 -18.976562 4.921875 -21.65625 C 6.117188 -24.34375 7.878906 -26.492188 10.203125 -28.109375 C 12.523438 -29.734375 15.320312 -30.546875 18.59375 -30.546875 C 21 -30.546875 23.050781 -30.023438 24.75 -28.984375 C 26.445312 -27.941406 27.753906 -26.53125 28.671875 -24.75 C 29.597656 -22.96875 30.0625 -20.9375 30.0625 -18.65625 C 30.0625 -18.0625 30.019531 -17.421875 29.9375 -16.734375 C 29.851562 -16.054688 29.710938 -15.378906 29.515625 -14.703125 L 4.6875 -14.703125 L 4.6875 -17.28125 L 28.140625 -17.28125 L 26.875 -16.3125 C 26.957031 -16.71875 27.019531 -17.117188 27.0625 -17.515625 C 27.101562 -17.921875 27.125 -18.320312 27.125 -18.71875 C 27.125 -20.476562 26.78125 -22.046875 26.09375 -23.421875 C 25.414062 -24.804688 24.425781 -25.90625 23.125 -26.71875 C 21.832031 -27.539062 20.265625 -27.953125 18.421875 -27.953125 C 16.378906 -27.953125 14.585938 -27.539062 13.046875 -26.71875 C 11.503906 -25.90625 10.210938 -24.785156 9.171875 -23.359375 C 8.140625 -21.941406 7.375 -20.332031 6.875 -18.53125 C 6.375 -16.738281 6.125 -14.863281 6.125 -12.90625 C 6.125 -10.78125 6.539062 -8.90625 7.375 -7.28125 C 8.21875 -5.664062 9.410156 -4.390625 10.953125 -3.453125 C 12.492188 -2.515625 14.300781 -2.046875 16.375 -2.046875 C 18.65625 -2.078125 20.601562 -2.601562 22.21875 -3.625 C 23.84375 -4.644531 25.132812 -5.957031 26.09375 -7.5625 L 28.5 -6 C 27.65625 -4.71875 26.625 -3.578125 25.40625 -2.578125 C 24.1875 -1.578125 22.804688 -0.804688 21.265625 -0.265625 C 19.722656 0.273438 18.015625 0.546875 16.140625 0.546875 Z M 16.140625 0.546875 "/></g></g></g><g fill="#000000" fill-opacity="1"><g transform="translate(464.203907, 388.749992)"><g><path d="M 1.734375 0 L 8.703125 -30 L 11.21875 -30 L 9.84375 -22.078125 L 9.359375 -22.5 C 10.035156 -24.101562 10.914062 -25.515625 12 -26.734375 C 13.082031 -27.953125 14.34375 -28.898438 15.78125 -29.578125 C 17.21875 -30.253906 18.757812 -30.59375 20.40625 -30.59375 C 21.082031 -30.59375 21.707031 -30.539062 22.28125 -30.4375 C 22.863281 -30.34375 23.359375 -30.15625 23.765625 -29.875 L 22.796875 -27.125 C 22.398438 -27.363281 21.929688 -27.539062 21.390625 -27.65625 C 20.847656 -27.78125 20.238281 -27.84375 19.5625 -27.84375 C 17.800781 -27.84375 16.191406 -27.398438 14.734375 -26.515625 C 13.273438 -25.640625 12.023438 -24.398438 10.984375 -22.796875 C 9.941406 -21.203125 9.179688 -19.300781 8.703125 -17.09375 L 4.734375 0 Z M 1.734375 0 "/></g></g></g><g fill="#000000" fill-opacity="1"><g transform="translate(486.103869, 388.749992)"><g><path d="M 14.640625 0.65625 C 12.242188 0.65625 10.125 0.273438 8.28125 -0.484375 C 6.4375 -1.242188 4.9375 -2.300781 3.78125 -3.65625 C 2.625 -5.019531 1.84375 -6.617188 1.4375 -8.453125 L 4.265625 -9.65625 C 4.742188 -7.21875 5.863281 -5.328125 7.625 -3.984375 C 9.382812 -2.648438 11.742188 -1.984375 14.703125 -1.984375 C 17.265625 -1.984375 19.242188 -2.5625 20.640625 -3.71875 C 22.035156 -4.875 22.734375 -6.351562 22.734375 -8.15625 C 22.734375 -9.4375 22.375 -10.457031 21.65625 -11.21875 C 20.9375 -11.976562 19.757812 -12.597656 18.125 -13.078125 L 12.421875 -14.703125 C 10.097656 -15.335938 8.335938 -16.273438 7.140625 -17.515625 C 5.941406 -18.753906 5.34375 -20.273438 5.34375 -22.078125 C 5.34375 -23.753906 5.800781 -25.222656 6.71875 -26.484375 C 7.632812 -27.742188 8.921875 -28.742188 10.578125 -29.484375 C 12.242188 -30.222656 14.175781 -30.59375 16.375 -30.59375 C 19.257812 -30.59375 21.769531 -29.929688 23.90625 -28.609375 C 26.050781 -27.296875 27.441406 -25.28125 28.078125 -22.5625 L 25.375 -21.296875 C 25.0625 -22.773438 24.472656 -24.015625 23.609375 -25.015625 C 22.742188 -26.015625 21.671875 -26.753906 20.390625 -27.234375 C 19.117188 -27.710938 17.703125 -27.953125 16.140625 -27.953125 C 13.660156 -27.953125 11.726562 -27.441406 10.34375 -26.421875 C 8.96875 -25.410156 8.28125 -24.0625 8.28125 -22.375 C 8.28125 -20.976562 8.726562 -19.890625 9.625 -19.109375 C 10.53125 -18.328125 11.722656 -17.71875 13.203125 -17.28125 L 19.3125 -15.546875 C 21.394531 -14.941406 22.976562 -14.054688 24.0625 -12.890625 C 25.144531 -11.734375 25.6875 -10.273438 25.6875 -8.515625 C 25.6875 -6.679688 25.210938 -5.070312 24.265625 -3.6875 C 23.328125 -2.3125 22.023438 -1.242188 20.359375 -0.484375 C 18.703125 0.273438 16.796875 0.65625 14.640625 0.65625 Z M 14.640625 0.65625 "/></g></g></g><g fill="#000000" fill-opacity="1"><g transform="translate(516.163835, 388.749992)"><g><path d="M 3.90625 -4.921875 C 4.78125 -4.921875 5.476562 -4.597656 6 -3.953125 C 6.519531 -3.316406 6.78125 -2.476562 6.78125 -1.4375 C 6.78125 -0.238281 6.457031 1.007812 5.8125 2.3125 C 5.175781 3.613281 4.273438 4.765625 3.109375 5.765625 C 1.953125 6.765625 0.597656 7.421875 -0.953125 7.734375 L -1.921875 5.8125 C -0.597656 5.570312 0.507812 5.140625 1.40625 4.515625 C 2.3125 3.898438 3.019531 3.179688 3.53125 2.359375 C 4.050781 1.546875 4.394531 0.71875 4.5625 -0.125 L 4.5 -0.1875 C 4.34375 0.0625 4.148438 0.222656 3.921875 0.296875 C 3.703125 0.378906 3.414062 0.421875 3.0625 0.421875 C 2.382812 0.421875 1.863281 0.179688 1.5 -0.296875 C 1.132812 -0.773438 0.953125 -1.335938 0.953125 -1.984375 C 0.953125 -2.816406 1.234375 -3.515625 1.796875 -4.078125 C 2.359375 -4.640625 3.0625 -4.921875 3.90625 -4.921875 Z M 3.90625 -4.921875 "/></g></g></g><g fill="#000000" fill-opacity="1"><g transform="translate(528.943817, 388.749992)"><g/></g></g><g fill="#000000" fill-opacity="1"><g transform="translate(547.483795, 388.749992)"><g><path d="M 21.296875 -30.546875 C 23.617188 -30.546875 25.648438 -29.984375 27.390625 -28.859375 C 29.128906 -27.742188 30.476562 -26.1875 31.4375 -24.1875 C 32.394531 -22.1875 32.875 -19.84375 32.875 -17.15625 C 32.875 -14.675781 32.515625 -12.363281 31.796875 -10.21875 C 31.078125 -8.082031 30.054688 -6.203125 28.734375 -4.578125 C 27.421875 -2.960938 25.851562 -1.695312 24.03125 -0.78125 C 22.207031 0.132812 20.175781 0.59375 17.9375 0.59375 C 15.78125 0.59375 13.910156 0.175781 12.328125 -0.65625 C 10.742188 -1.5 9.484375 -2.648438 8.546875 -4.109375 C 7.609375 -5.566406 7.039062 -7.21875 6.84375 -9.0625 L 4.734375 0 L 1.734375 0 L 11.875 -43.796875 L 14.875 -43.796875 L 10.3125 -24.234375 C 11.351562 -26.160156 12.851562 -27.691406 14.8125 -28.828125 C 16.78125 -29.972656 18.941406 -30.546875 21.296875 -30.546875 Z M 17.9375 -1.984375 C 19.65625 -1.984375 21.242188 -2.363281 22.703125 -3.125 C 24.171875 -3.882812 25.441406 -4.953125 26.515625 -6.328125 C 27.597656 -7.710938 28.4375 -9.320312 29.03125 -11.15625 C 29.632812 -13 29.9375 -15.019531 29.9375 -17.21875 C 29.9375 -19.539062 29.523438 -21.488281 28.703125 -23.0625 C 27.890625 -24.644531 26.769531 -25.851562 25.34375 -26.6875 C 23.925781 -27.53125 22.316406 -27.953125 20.515625 -27.953125 C 18.640625 -27.953125 16.953125 -27.5625 15.453125 -26.78125 C 13.953125 -26.007812 12.660156 -24.910156 11.578125 -23.484375 C 10.492188 -22.066406 9.671875 -20.394531 9.109375 -18.46875 C 8.554688 -16.550781 8.28125 -14.472656 8.28125 -12.234375 C 8.28125 -9.117188 9.140625 -6.628906 10.859375 -4.765625 C 12.578125 -2.910156 14.9375 -1.984375 17.9375 -1.984375 Z M 17.9375 -1.984375 "/></g></g></g><g fill="#000000" fill-opacity="1"><g transform="translate(583.483747, 388.749992)"><g><path d="M 13.6875 0.546875 C 11.28125 0.546875 9.242188 0.046875 7.578125 -0.953125 C 5.921875 -1.953125 4.773438 -3.410156 4.140625 -5.328125 C 3.503906 -7.253906 3.484375 -9.554688 4.078125 -12.234375 L 8.21875 -30 L 11.21875 -30 L 7.140625 -12.234375 C 6.335938 -8.953125 6.625 -6.441406 8 -4.703125 C 9.382812 -2.960938 11.5 -2.09375 14.34375 -2.09375 C 16.457031 -2.09375 18.3125 -2.550781 19.90625 -3.46875 C 21.507812 -4.394531 22.84375 -5.695312 23.90625 -7.375 C 24.96875 -9.0625 25.738281 -10.984375 26.21875 -13.140625 L 30.125 -30 L 33.125 -30 L 26.15625 0 L 23.515625 0 L 25.015625 -7.5 L 25.5 -7.3125 C 24.582031 -4.875 23.082031 -2.953125 21 -1.546875 C 18.914062 -0.148438 16.476562 0.546875 13.6875 0.546875 Z M 13.6875 0.546875 "/></g></g></g><g fill="#000000" fill-opacity="1"><g transform="translate(618.34373, 388.749992)"><g><path d="M 12.71875 0.546875 C 10.84375 0.546875 9.300781 0.175781 8.09375 -0.5625 C 6.894531 -1.3125 6.078125 -2.375 5.640625 -3.75 C 5.203125 -5.125 5.179688 -6.796875 5.578125 -8.765625 L 12.125 -37.140625 L 15.421875 -38.09375 L 8.515625 -8.578125 C 8.035156 -6.421875 8.222656 -4.800781 9.078125 -3.71875 C 9.941406 -2.632812 11.296875 -2.09375 13.140625 -2.09375 C 14.140625 -2.09375 15.039062 -2.234375 15.84375 -2.515625 C 16.644531 -2.796875 17.382812 -3.175781 18.0625 -3.65625 L 18.71875 -1.203125 C 17.84375 -0.597656 16.90625 -0.15625 15.90625 0.125 C 14.90625 0.40625 13.84375 0.546875 12.71875 0.546875 Z M 3.71875 -27.421875 L 4.375 -30 L 23.15625 -30 L 22.5 -27.421875 Z M 3.71875 -27.421875 "/></g></g></g><g fill="#000000" fill-opacity="1"><g transform="translate(640.423685, 388.749992)"><g/></g></g><g fill="#000000" fill-opacity="1"><g transform="translate(658.963662, 388.749992)"><g><path d="M 14.765625 -39.59375 L 5.578125 0 L 2.578125 0 L 11.765625 -39.59375 Z M 14.765625 -39.59375 "/></g></g></g><g fill="#000000" fill-opacity="1"><g transform="translate(674.143654, 388.749992)"><g><path d="M 13.796875 -41.09375 L 10.078125 -28.796875 L 7.5625 -28.796875 L 10.4375 -41.09375 Z M 13.796875 -41.09375 "/></g></g></g><g fill="#000000" fill-opacity="1"><g transform="translate(685.723655, 388.749992)"><g><path d="M 1.734375 0 L 8.703125 -30 L 11.34375 -30 L 9.84375 -22.5 L 9.421875 -22.6875 C 10.265625 -25.125 11.765625 -27.050781 13.921875 -28.46875 C 16.078125 -29.882812 18.632812 -30.59375 21.59375 -30.59375 C 23.875 -30.59375 25.765625 -30.082031 27.265625 -29.0625 C 28.765625 -28.050781 29.804688 -26.59375 30.390625 -24.6875 C 30.972656 -22.789062 30.941406 -20.5 30.296875 -17.8125 L 26.15625 0 L 23.15625 0 L 27.296875 -17.765625 C 28.054688 -21.046875 27.835938 -23.5625 26.640625 -25.3125 C 25.441406 -27.070312 23.5 -27.953125 20.8125 -27.953125 C 18.613281 -27.953125 16.691406 -27.484375 15.046875 -26.546875 C 13.410156 -25.609375 12.0625 -24.304688 11 -22.640625 C 9.945312 -20.984375 9.160156 -19.054688 8.640625 -16.859375 L 4.734375 0 Z M 44.640625 0 L 48.71875 -17.765625 C 49.476562 -21.046875 49.257812 -23.5625 48.0625 -25.3125 C 46.863281 -27.070312 44.921875 -27.953125 42.234375 -27.953125 C 40.035156 -27.953125 38.101562 -27.472656 36.4375 -26.515625 C 34.78125 -25.554688 33.421875 -24.238281 32.359375 -22.5625 C 31.304688 -20.882812 30.519531 -18.925781 30 -16.6875 L 29.875 -21.78125 C 31 -24.582031 32.703125 -26.75 34.984375 -28.28125 C 37.265625 -29.820312 39.941406 -30.59375 43.015625 -30.59375 C 45.296875 -30.59375 47.195312 -30.082031 48.71875 -29.0625 C 50.238281 -28.050781 51.28125 -26.59375 51.84375 -24.6875 C 52.40625 -22.789062 52.363281 -20.5 51.71875 -17.8125 L 47.640625 0 Z M 44.640625 0 "/></g></g></g><g fill="#000000" fill-opacity="1"><g transform="translate(741.823598, 388.749992)"><g/></g></g><g fill="#000000" fill-opacity="1"><g transform="translate(760.363575, 388.749992)"><g><path d="M 1.734375 0 L 8.703125 -30 L 11.34375 -30 L 9.84375 -22.5 L 9.421875 -22.6875 C 10.265625 -25.125 11.773438 -27.050781 13.953125 -28.46875 C 16.128906 -29.882812 18.695312 -30.59375 21.65625 -30.59375 C 24.019531 -30.59375 25.988281 -30.082031 27.5625 -29.0625 C 29.144531 -28.050781 30.242188 -26.59375 30.859375 -24.6875 C 31.484375 -22.789062 31.5 -20.519531 30.90625 -17.875 L 26.765625 0 L 23.765625 0 L 27.84375 -17.8125 C 28.601562 -21.0625 28.320312 -23.5625 27 -25.3125 C 25.675781 -27.070312 23.632812 -27.953125 20.875 -27.953125 C 18.675781 -27.953125 16.753906 -27.484375 15.109375 -26.546875 C 13.472656 -25.609375 12.113281 -24.304688 11.03125 -22.640625 C 9.957031 -20.984375 9.160156 -19.054688 8.640625 -16.859375 L 4.734375 0 Z M 1.734375 0 "/></g></g></g><g fill="#000000" fill-opacity="1"><g transform="translate(795.283526, 388.749992)"><g><path d="M 16.375 0.546875 C 13.582031 0.546875 11.191406 -0.0625 9.203125 -1.28125 C 7.222656 -2.507812 5.710938 -4.148438 4.671875 -6.203125 C 3.640625 -8.265625 3.125 -10.515625 3.125 -12.953125 C 3.125 -16.398438 3.769531 -19.441406 5.0625 -22.078125 C 6.363281 -24.722656 8.15625 -26.796875 10.4375 -28.296875 C 12.71875 -29.796875 15.378906 -30.546875 18.421875 -30.546875 C 21.296875 -30.546875 23.703125 -29.929688 25.640625 -28.703125 C 27.585938 -27.484375 29.070312 -25.863281 30.09375 -23.84375 C 31.113281 -21.820312 31.625 -19.570312 31.625 -17.09375 C 31.625 -13.695312 30.984375 -10.664062 29.703125 -8 C 28.421875 -5.34375 26.640625 -3.253906 24.359375 -1.734375 C 22.078125 -0.210938 19.414062 0.546875 16.375 0.546875 Z M 16.5 -2.046875 C 18.21875 -2.046875 19.816406 -2.394531 21.296875 -3.09375 C 22.773438 -3.789062 24.0625 -4.804688 25.15625 -6.140625 C 26.257812 -7.484375 27.101562 -9.078125 27.6875 -10.921875 C 28.269531 -12.765625 28.5625 -14.785156 28.5625 -16.984375 C 28.5625 -19.140625 28.171875 -21.035156 27.390625 -22.671875 C 26.609375 -24.316406 25.457031 -25.609375 23.9375 -26.546875 C 22.414062 -27.484375 20.535156 -27.953125 18.296875 -27.953125 C 16.578125 -27.953125 14.96875 -27.601562 13.46875 -26.90625 C 11.96875 -26.207031 10.675781 -25.195312 9.59375 -23.875 C 8.519531 -22.5625 7.679688 -20.984375 7.078125 -19.140625 C 6.484375 -17.296875 6.1875 -15.273438 6.1875 -13.078125 C 6.1875 -10.960938 6.582031 -9.070312 7.375 -7.40625 C 8.175781 -5.75 9.347656 -4.441406 10.890625 -3.484375 C 12.429688 -2.523438 14.300781 -2.046875 16.5 -2.046875 Z M 16.5 -2.046875 "/></g></g></g><g fill="#000000" fill-opacity="1"><g transform="translate(830.023484, 388.749992)"><g><path d="M 12.71875 0.546875 C 10.84375 0.546875 9.300781 0.175781 8.09375 -0.5625 C 6.894531 -1.3125 6.078125 -2.375 5.640625 -3.75 C 5.203125 -5.125 5.179688 -6.796875 5.578125 -8.765625 L 12.125 -37.140625 L 15.421875 -38.09375 L 8.515625 -8.578125 C 8.035156 -6.421875 8.222656 -4.800781 9.078125 -3.71875 C 9.941406 -2.632812 11.296875 -2.09375 13.140625 -2.09375 C 14.140625 -2.09375 15.039062 -2.234375 15.84375 -2.515625 C 16.644531 -2.796875 17.382812 -3.175781 18.0625 -3.65625 L 18.71875 -1.203125 C 17.84375 -0.597656 16.90625 -0.15625 15.90625 0.125 C 14.90625 0.40625 13.84375 0.546875 12.71875 0.546875 Z M 3.71875 -27.421875 L 4.375 -30 L 23.15625 -30 L 22.5 -27.421875 Z M 3.71875 -27.421875 "/></g></g></g><g fill="#000000" fill-opacity="1"><g transform="translate(852.103484, 388.749992)"><g/></g></g><g fill="#000000" fill-opacity="1"><g transform="translate(870.643462, 388.749992)"><g><path d="M 14.640625 0.65625 C 12.242188 0.65625 10.125 0.273438 8.28125 -0.484375 C 6.4375 -1.242188 4.9375 -2.300781 3.78125 -3.65625 C 2.625 -5.019531 1.84375 -6.617188 1.4375 -8.453125 L 4.265625 -9.65625 C 4.742188 -7.21875 5.863281 -5.328125 7.625 -3.984375 C 9.382812 -2.648438 11.742188 -1.984375 14.703125 -1.984375 C 17.265625 -1.984375 19.242188 -2.5625 20.640625 -3.71875 C 22.035156 -4.875 22.734375 -6.351562 22.734375 -8.15625 C 22.734375 -9.4375 22.375 -10.457031 21.65625 -11.21875 C 20.9375 -11.976562 19.757812 -12.597656 18.125 -13.078125 L 12.421875 -14.703125 C 10.097656 -15.335938 8.335938 -16.273438 7.140625 -17.515625 C 5.941406 -18.753906 5.34375 -20.273438 5.34375 -22.078125 C 5.34375 -23.753906 5.800781 -25.222656 6.71875 -26.484375 C 7.632812 -27.742188 8.921875 -28.742188 10.578125 -29.484375 C 12.242188 -30.222656 14.175781 -30.59375 16.375 -30.59375 C 19.257812 -30.59375 21.769531 -29.929688 23.90625 -28.609375 C 26.050781 -27.296875 27.441406 -25.28125 28.078125 -22.5625 L 25.375 -21.296875 C 25.0625 -22.773438 24.472656 -24.015625 23.609375 -25.015625 C 22.742188 -26.015625 21.671875 -26.753906 20.390625 -27.234375 C 19.117188 -27.710938 17.703125 -27.953125 16.140625 -27.953125 C 13.660156 -27.953125 11.726562 -27.441406 10.34375 -26.421875 C 8.96875 -25.410156 8.28125 -24.0625 8.28125 -22.375 C 8.28125 -20.976562 8.726562 -19.890625 9.625 -19.109375 C 10.53125 -18.328125 11.722656 -17.71875 13.203125 -17.28125 L 19.3125 -15.546875 C 21.394531 -14.941406 22.976562 -14.054688 24.0625 -12.890625 C 25.144531 -11.734375 25.6875 -10.273438 25.6875 -8.515625 C 25.6875 -6.679688 25.210938 -5.070312 24.265625 -3.6875 C 23.328125 -2.3125 22.023438 -1.242188 20.359375 -0.484375 C 18.703125 0.273438 16.796875 0.65625 14.640625 0.65625 Z M 14.640625 0.65625 "/></g></g></g><g fill="#000000" fill-opacity="1"><g transform="translate(900.703427, 388.749992)"><g><path d="M 13.6875 0.546875 C 11.28125 0.546875 9.242188 0.046875 7.578125 -0.953125 C 5.921875 -1.953125 4.773438 -3.410156 4.140625 -5.328125 C 3.503906 -7.253906 3.484375 -9.554688 4.078125 -12.234375 L 8.21875 -30 L 11.21875 -30 L 7.140625 -12.234375 C 6.335938 -8.953125 6.625 -6.441406 8 -4.703125 C 9.382812 -2.960938 11.5 -2.09375 14.34375 -2.09375 C 16.457031 -2.09375 18.3125 -2.550781 19.90625 -3.46875 C 21.507812 -4.394531 22.84375 -5.695312 23.90625 -7.375 C 24.96875 -9.0625 25.738281 -10.984375 26.21875 -13.140625 L 30.125 -30 L 33.125 -30 L 26.15625 0 L 23.515625 0 L 25.015625 -7.5 L 25.5 -7.3125 C 24.582031 -4.875 23.082031 -2.953125 21 -1.546875 C 18.914062 -0.148438 16.476562 0.546875 13.6875 0.546875 Z M 13.6875 0.546875 "/></g></g></g><g fill="#000000" fill-opacity="1"><g transform="translate(935.56341, 388.749992)"><g><path d="M 1.734375 0 L 8.703125 -30 L 11.21875 -30 L 9.84375 -22.078125 L 9.359375 -22.5 C 10.035156 -24.101562 10.914062 -25.515625 12 -26.734375 C 13.082031 -27.953125 14.34375 -28.898438 15.78125 -29.578125 C 17.21875 -30.253906 18.757812 -30.59375 20.40625 -30.59375 C 21.082031 -30.59375 21.707031 -30.539062 22.28125 -30.4375 C 22.863281 -30.34375 23.359375 -30.15625 23.765625 -29.875 L 22.796875 -27.125 C 22.398438 -27.363281 21.929688 -27.539062 21.390625 -27.65625 C 20.847656 -27.78125 20.238281 -27.84375 19.5625 -27.84375 C 17.800781 -27.84375 16.191406 -27.398438 14.734375 -26.515625 C 13.273438 -25.640625 12.023438 -24.398438 10.984375 -22.796875 C 9.941406 -21.203125 9.179688 -19.300781 8.703125 -17.09375 L 4.734375 0 Z M 1.734375 0 "/></g></g></g><g fill="#000000" fill-opacity="1"><g transform="translate(957.463372, 388.749992)"><g><path d="M 16.140625 0.546875 C 13.378906 0.546875 11.019531 -0.0507812 9.0625 -1.25 C 7.101562 -2.457031 5.625 -4.085938 4.625 -6.140625 C 3.625 -8.203125 3.125 -10.472656 3.125 -12.953125 C 3.125 -16.078125 3.722656 -18.976562 4.921875 -21.65625 C 6.117188 -24.34375 7.878906 -26.492188 10.203125 -28.109375 C 12.523438 -29.734375 15.320312 -30.546875 18.59375 -30.546875 C 21 -30.546875 23.050781 -30.023438 24.75 -28.984375 C 26.445312 -27.941406 27.753906 -26.53125 28.671875 -24.75 C 29.597656 -22.96875 30.0625 -20.9375 30.0625 -18.65625 C 30.0625 -18.0625 30.019531 -17.421875 29.9375 -16.734375 C 29.851562 -16.054688 29.710938 -15.378906 29.515625 -14.703125 L 4.6875 -14.703125 L 4.6875 -17.28125 L 28.140625 -17.28125 L 26.875 -16.3125 C 26.957031 -16.71875 27.019531 -17.117188 27.0625 -17.515625 C 27.101562 -17.921875 27.125 -18.320312 27.125 -18.71875 C 27.125 -20.476562 26.78125 -22.046875 26.09375 -23.421875 C 25.414062 -24.804688 24.425781 -25.90625 23.125 -26.71875 C 21.832031 -27.539062 20.265625 -27.953125 18.421875 -27.953125 C 16.378906 -27.953125 14.585938 -27.539062 13.046875 -26.71875 C 11.503906 -25.90625 10.210938 -24.785156 9.171875 -23.359375 C 8.140625 -21.941406 7.375 -20.332031 6.875 -18.53125 C 6.375 -16.738281 6.125 -14.863281 6.125 -12.90625 C 6.125 -10.78125 6.539062 -8.90625 7.375 -7.28125 C 8.21875 -5.664062 9.410156 -4.390625 10.953125 -3.453125 C 12.492188 -2.515625 14.300781 -2.046875 16.375 -2.046875 C 18.65625 -2.078125 20.601562 -2.601562 22.21875 -3.625 C 23.84375 -4.644531 25.132812 -5.957031 26.09375 -7.5625 L 28.5 -6 C 27.65625 -4.71875 26.625 -3.578125 25.40625 -2.578125 C 24.1875 -1.578125 22.804688 -0.804688 21.265625 -0.265625 C 19.722656 0.273438 18.015625 0.546875 16.140625 0.546875 Z M 16.140625 0.546875 "/></g></g></g><g fill="#000000" fill-opacity="1"><g transform="translate(990.523338, 388.749992)"><g/></g></g><g fill="#000000" fill-opacity="1"><g transform="translate(1009.063315, 388.749992)"><g><path d="M 7.859375 0 L 4.859375 -30 L 7.734375 -30 L 10.203125 -3.84375 L 24.953125 -30 L 27.953125 -30 L 31.375 -3.71875 L 45.65625 -30 L 48.90625 -30 L 32.21875 0 L 29.21875 0 L 25.6875 -25.984375 L 10.921875 0 Z M 7.859375 0 "/></g></g></g><g fill="#000000" fill-opacity="1"><g transform="translate(1056.103291, 388.749992)"><g><path d="M 1.734375 0 L 11.875 -43.796875 L 14.875 -43.796875 L 10.015625 -22.859375 L 9.421875 -22.6875 C 10.015625 -24.28125 10.890625 -25.664062 12.046875 -26.84375 C 13.210938 -28.03125 14.613281 -28.953125 16.25 -29.609375 C 17.894531 -30.265625 19.695312 -30.59375 21.65625 -30.59375 C 23.9375 -30.59375 25.875 -30.082031 27.46875 -29.0625 C 29.070312 -28.050781 30.191406 -26.59375 30.828125 -24.6875 C 31.472656 -22.789062 31.5 -20.519531 30.90625 -17.875 L 26.765625 0 L 23.765625 0 L 27.84375 -17.8125 C 28.601562 -21.0625 28.320312 -23.5625 27 -25.3125 C 25.675781 -27.070312 23.632812 -27.953125 20.875 -27.953125 C 18.675781 -27.953125 16.753906 -27.484375 15.109375 -26.546875 C 13.472656 -25.609375 12.113281 -24.304688 11.03125 -22.640625 C 9.957031 -20.984375 9.160156 -19.054688 8.640625 -16.859375 L 4.734375 0 Z M 1.734375 0 "/></g></g></g><g fill="#000000" fill-opacity="1"><g transform="translate(1091.023242, 388.749992)"><g><path d="M 16.140625 0.546875 C 13.378906 0.546875 11.019531 -0.0507812 9.0625 -1.25 C 7.101562 -2.457031 5.625 -4.085938 4.625 -6.140625 C 3.625 -8.203125 3.125 -10.472656 3.125 -12.953125 C 3.125 -16.078125 3.722656 -18.976562 4.921875 -21.65625 C 6.117188 -24.34375 7.878906 -26.492188 10.203125 -28.109375 C 12.523438 -29.734375 15.320312 -30.546875 18.59375 -30.546875 C 21 -30.546875 23.050781 -30.023438 24.75 -28.984375 C 26.445312 -27.941406 27.753906 -26.53125 28.671875 -24.75 C 29.597656 -22.96875 30.0625 -20.9375 30.0625 -18.65625 C 30.0625 -18.0625 30.019531 -17.421875 29.9375 -16.734375 C 29.851562 -16.054688 29.710938 -15.378906 29.515625 -14.703125 L 4.6875 -14.703125 L 4.6875 -17.28125 L 28.140625 -17.28125 L 26.875 -16.3125 C 26.957031 -16.71875 27.019531 -17.117188 27.0625 -17.515625 C 27.101562 -17.921875 27.125 -18.320312 27.125 -18.71875 C 27.125 -20.476562 26.78125 -22.046875 26.09375 -23.421875 C 25.414062 -24.804688 24.425781 -25.90625 23.125 -26.71875 C 21.832031 -27.539062 20.265625 -27.953125 18.421875 -27.953125 C 16.378906 -27.953125 14.585938 -27.539062 13.046875 -26.71875 C 11.503906 -25.90625 10.210938 -24.785156 9.171875 -23.359375 C 8.140625 -21.941406 7.375 -20.332031 6.875 -18.53125 C 6.375 -16.738281 6.125 -14.863281 6.125 -12.90625 C 6.125 -10.78125 6.539062 -8.90625 7.375 -7.28125 C 8.21875 -5.664062 9.410156 -4.390625 10.953125 -3.453125 C 12.492188 -2.515625 14.300781 -2.046875 16.375 -2.046875 C 18.65625 -2.078125 20.601562 -2.601562 22.21875 -3.625 C 23.84375 -4.644531 25.132812 -5.957031 26.09375 -7.5625 L 28.5 -6 C 27.65625 -4.71875 26.625 -3.578125 25.40625 -2.578125 C 24.1875 -1.578125 22.804688 -0.804688 21.265625 -0.265625 C 19.722656 0.273438 18.015625 0.546875 16.140625 0.546875 Z M 16.140625 0.546875 "/></g></g></g><g fill="#000000" fill-opacity="1"><g transform="translate(1124.083207, 388.749992)"><g><path d="M 1.734375 0 L 8.703125 -30 L 11.21875 -30 L 9.84375 -22.078125 L 9.359375 -22.5 C 10.035156 -24.101562 10.914062 -25.515625 12 -26.734375 C 13.082031 -27.953125 14.34375 -28.898438 15.78125 -29.578125 C 17.21875 -30.253906 18.757812 -30.59375 20.40625 -30.59375 C 21.082031 -30.59375 21.707031 -30.539062 22.28125 -30.4375 C 22.863281 -30.34375 23.359375 -30.15625 23.765625 -29.875 L 22.796875 -27.125 C 22.398438 -27.363281 21.929688 -27.539062 21.390625 -27.65625 C 20.847656 -27.78125 20.238281 -27.84375 19.5625 -27.84375 C 17.800781 -27.84375 16.191406 -27.398438 14.734375 -26.515625 C 13.273438 -25.640625 12.023438 -24.398438 10.984375 -22.796875 C 9.941406 -21.203125 9.179688 -19.300781 8.703125 -17.09375 L 4.734375 0 Z M 1.734375 0 "/></g></g></g><g fill="#000000" fill-opacity="1"><g transform="translate(1145.983169, 388.749992)"><g><path d="M 16.140625 0.546875 C 13.378906 0.546875 11.019531 -0.0507812 9.0625 -1.25 C 7.101562 -2.457031 5.625 -4.085938 4.625 -6.140625 C 3.625 -8.203125 3.125 -10.472656 3.125 -12.953125 C 3.125 -16.078125 3.722656 -18.976562 4.921875 -21.65625 C 6.117188 -24.34375 7.878906 -26.492188 10.203125 -28.109375 C 12.523438 -29.734375 15.320312 -30.546875 18.59375 -30.546875 C 21 -30.546875 23.050781 -30.023438 24.75 -28.984375 C 26.445312 -27.941406 27.753906 -26.53125 28.671875 -24.75 C 29.597656 -22.96875 30.0625 -20.9375 30.0625 -18.65625 C 30.0625 -18.0625 30.019531 -17.421875 29.9375 -16.734375 C 29.851562 -16.054688 29.710938 -15.378906 29.515625 -14.703125 L 4.6875 -14.703125 L 4.6875 -17.28125 L 28.140625 -17.28125 L 26.875 -16.3125 C 26.957031 -16.71875 27.019531 -17.117188 27.0625 -17.515625 C 27.101562 -17.921875 27.125 -18.320312 27.125 -18.71875 C 27.125 -20.476562 26.78125 -22.046875 26.09375 -23.421875 C 25.414062 -24.804688 24.425781 -25.90625 23.125 -26.71875 C 21.832031 -27.539062 20.265625 -27.953125 18.421875 -27.953125 C 16.378906 -27.953125 14.585938 -27.539062 13.046875 -26.71875 C 11.503906 -25.90625 10.210938 -24.785156 9.171875 -23.359375 C 8.140625 -21.941406 7.375 -20.332031 6.875 -18.53125 C 6.375 -16.738281 6.125 -14.863281 6.125 -12.90625 C 6.125 -10.78125 6.539062 -8.90625 7.375 -7.28125 C 8.21875 -5.664062 9.410156 -4.390625 10.953125 -3.453125 C 12.492188 -2.515625 14.300781 -2.046875 16.375 -2.046875 C 18.65625 -2.078125 20.601562 -2.601562 22.21875 -3.625 C 23.84375 -4.644531 25.132812 -5.957031 26.09375 -7.5625 L 28.5 -6 C 27.65625 -4.71875 26.625 -3.578125 25.40625 -2.578125 C 24.1875 -1.578125 22.804688 -0.804688 21.265625 -0.265625 C 19.722656 0.273438 18.015625 0.546875 16.140625 0.546875 Z M 16.140625 0.546875 "/></g></g></g><g fill="#000000" fill-opacity="1"><g transform="translate(407.354605, 472.749987)"><g><path d="M 12.71875 0.546875 C 10.84375 0.546875 9.300781 0.175781 8.09375 -0.5625 C 6.894531 -1.3125 6.078125 -2.375 5.640625 -3.75 C 5.203125 -5.125 5.179688 -6.796875 5.578125 -8.765625 L 12.125 -37.140625 L 15.421875 -38.09375 L 8.515625 -8.578125 C 8.035156 -6.421875 8.222656 -4.800781 9.078125 -3.71875 C 9.941406 -2.632812 11.296875 -2.09375 13.140625 -2.09375 C 14.140625 -2.09375 15.039062 -2.234375 15.84375 -2.515625 C 16.644531 -2.796875 17.382812 -3.175781 18.0625 -3.65625 L 18.71875 -1.203125 C 17.84375 -0.597656 16.90625 -0.15625 15.90625 0.125 C 14.90625 0.40625 13.84375 0.546875 12.71875 0.546875 Z M 3.71875 -27.421875 L 4.375 -30 L 23.15625 -30 L 22.5 -27.421875 Z M 3.71875 -27.421875 "/></g></g></g><g fill="#000000" fill-opacity="1"><g transform="translate(429.434583, 472.749987)"><g><path d="M 16.375 0.546875 C 13.582031 0.546875 11.191406 -0.0625 9.203125 -1.28125 C 7.222656 -2.507812 5.710938 -4.148438 4.671875 -6.203125 C 3.640625 -8.265625 3.125 -10.515625 3.125 -12.953125 C 3.125 -16.398438 3.769531 -19.441406 5.0625 -22.078125 C 6.363281 -24.722656 8.15625 -26.796875 10.4375 -28.296875 C 12.71875 -29.796875 15.378906 -30.546875 18.421875 -30.546875 C 21.296875 -30.546875 23.703125 -29.929688 25.640625 -28.703125 C 27.585938 -27.484375 29.070312 -25.863281 30.09375 -23.84375 C 31.113281 -21.820312 31.625 -19.570312 31.625 -17.09375 C 31.625 -13.695312 30.984375 -10.664062 29.703125 -8 C 28.421875 -5.34375 26.640625 -3.253906 24.359375 -1.734375 C 22.078125 -0.210938 19.414062 0.546875 16.375 0.546875 Z M 16.5 -2.046875 C 18.21875 -2.046875 19.816406 -2.394531 21.296875 -3.09375 C 22.773438 -3.789062 24.0625 -4.804688 25.15625 -6.140625 C 26.257812 -7.484375 27.101562 -9.078125 27.6875 -10.921875 C 28.269531 -12.765625 28.5625 -14.785156 28.5625 -16.984375 C 28.5625 -19.140625 28.171875 -21.035156 27.390625 -22.671875 C 26.609375 -24.316406 25.457031 -25.609375 23.9375 -26.546875 C 22.414062 -27.484375 20.535156 -27.953125 18.296875 -27.953125 C 16.578125 -27.953125 14.96875 -27.601562 13.46875 -26.90625 C 11.96875 -26.207031 10.675781 -25.195312 9.59375 -23.875 C 8.519531 -22.5625 7.679688 -20.984375 7.078125 -19.140625 C 6.484375 -17.296875 6.1875 -15.273438 6.1875 -13.078125 C 6.1875 -10.960938 6.582031 -9.070312 7.375 -7.40625 C 8.175781 -5.75 9.347656 -4.441406 10.890625 -3.484375 C 12.429688 -2.523438 14.300781 -2.046875 16.5 -2.046875 Z M 16.5 -2.046875 "/></g></g></g><g fill="#000000" fill-opacity="1"><g transform="translate(464.174553, 472.749987)"><g/></g></g><g fill="#000000" fill-opacity="1"><g transform="translate(482.71453, 472.749987)"><g><path d="M 8.578125 0.484375 C 6.222656 0.484375 4.601562 -0.265625 3.71875 -1.765625 C 2.84375 -3.265625 2.703125 -5.316406 3.296875 -7.921875 L 11.640625 -43.796875 L 14.640625 -43.796875 L 6.234375 -7.734375 C 5.796875 -5.816406 5.859375 -4.40625 6.421875 -3.5 C 6.984375 -2.601562 8.0625 -2.15625 9.65625 -2.15625 C 10.34375 -2.15625 10.914062 -2.1875 11.375 -2.25 C 11.832031 -2.3125 12.257812 -2.398438 12.65625 -2.515625 L 11.9375 -0.125 C 11.457031 0.0820312 10.945312 0.234375 10.40625 0.328125 C 9.863281 0.429688 9.253906 0.484375 8.578125 0.484375 Z M 8.578125 0.484375 "/></g></g></g><g fill="#000000" fill-opacity="1"><g transform="translate(498.914511, 472.749987)"><g><path d="M 16.375 0.546875 C 13.582031 0.546875 11.191406 -0.0625 9.203125 -1.28125 C 7.222656 -2.507812 5.710938 -4.148438 4.671875 -6.203125 C 3.640625 -8.265625 3.125 -10.515625 3.125 -12.953125 C 3.125 -16.398438 3.769531 -19.441406 5.0625 -22.078125 C 6.363281 -24.722656 8.15625 -26.796875 10.4375 -28.296875 C 12.71875 -29.796875 15.378906 -30.546875 18.421875 -30.546875 C 21.296875 -30.546875 23.703125 -29.929688 25.640625 -28.703125 C 27.585938 -27.484375 29.070312 -25.863281 30.09375 -23.84375 C 31.113281 -21.820312 31.625 -19.570312 31.625 -17.09375 C 31.625 -13.695312 30.984375 -10.664062 29.703125 -8 C 28.421875 -5.34375 26.640625 -3.253906 24.359375 -1.734375 C 22.078125 -0.210938 19.414062 0.546875 16.375 0.546875 Z M 16.5 -2.046875 C 18.21875 -2.046875 19.816406 -2.394531 21.296875 -3.09375 C 22.773438 -3.789062 24.0625 -4.804688 25.15625 -6.140625 C 26.257812 -7.484375 27.101562 -9.078125 27.6875 -10.921875 C 28.269531 -12.765625 28.5625 -14.785156 28.5625 -16.984375 C 28.5625 -19.140625 28.171875 -21.035156 27.390625 -22.671875 C 26.609375 -24.316406 25.457031 -25.609375 23.9375 -26.546875 C 22.414062 -27.484375 20.535156 -27.953125 18.296875 -27.953125 C 16.578125 -27.953125 14.96875 -27.601562 13.46875 -26.90625 C 11.96875 -26.207031 10.675781 -25.195312 9.59375 -23.875 C 8.519531 -22.5625 7.679688 -20.984375 7.078125 -19.140625 C 6.484375 -17.296875 6.1875 -15.273438 6.1875 -13.078125 C 6.1875 -10.960938 6.582031 -9.070312 7.375 -7.40625 C 8.175781 -5.75 9.347656 -4.441406 10.890625 -3.484375 C 12.429688 -2.523438 14.300781 -2.046875 16.5 -2.046875 Z M 16.5 -2.046875 "/></g></g></g><g fill="#000000" fill-opacity="1"><g transform="translate(533.654481, 472.749987)"><g><path d="M 16.375 0.546875 C 13.582031 0.546875 11.191406 -0.0625 9.203125 -1.28125 C 7.222656 -2.507812 5.710938 -4.148438 4.671875 -6.203125 C 3.640625 -8.265625 3.125 -10.515625 3.125 -12.953125 C 3.125 -16.398438 3.769531 -19.441406 5.0625 -22.078125 C 6.363281 -24.722656 8.15625 -26.796875 10.4375 -28.296875 C 12.71875 -29.796875 15.378906 -30.546875 18.421875 -30.546875 C 21.296875 -30.546875 23.703125 -29.929688 25.640625 -28.703125 C 27.585938 -27.484375 29.070312 -25.863281 30.09375 -23.84375 C 31.113281 -21.820312 31.625 -19.570312 31.625 -17.09375 C 31.625 -13.695312 30.984375 -10.664062 29.703125 -8 C 28.421875 -5.34375 26.640625 -3.253906 24.359375 -1.734375 C 22.078125 -0.210938 19.414062 0.546875 16.375 0.546875 Z M 16.5 -2.046875 C 18.21875 -2.046875 19.816406 -2.394531 21.296875 -3.09375 C 22.773438 -3.789062 24.0625 -4.804688 25.15625 -6.140625 C 26.257812 -7.484375 27.101562 -9.078125 27.6875 -10.921875 C 28.269531 -12.765625 28.5625 -14.785156 28.5625 -16.984375 C 28.5625 -19.140625 28.171875 -21.035156 27.390625 -22.671875 C 26.609375 -24.316406 25.457031 -25.609375 23.9375 -26.546875 C 22.414062 -27.484375 20.535156 -27.953125 18.296875 -27.953125 C 16.578125 -27.953125 14.96875 -27.601562 13.46875 -26.90625 C 11.96875 -26.207031 10.675781 -25.195312 9.59375 -23.875 C 8.519531 -22.5625 7.679688 -20.984375 7.078125 -19.140625 C 6.484375 -17.296875 6.1875 -15.273438 6.1875 -13.078125 C 6.1875 -10.960938 6.582031 -9.070312 7.375 -7.40625 C 8.175781 -5.75 9.347656 -4.441406 10.890625 -3.484375 C 12.429688 -2.523438 14.300781 -2.046875 16.5 -2.046875 Z M 16.5 -2.046875 "/></g></g></g><g fill="#000000" fill-opacity="1"><g transform="translate(568.394451, 472.749987)"><g><path d="M 32.578125 -30 L 16.796875 -17.34375 L 16.078125 -16.796875 L 4.984375 -7.859375 L 5.640625 -11.8125 L 28.265625 -30 Z M 14.875 -43.796875 L 4.734375 0 L 1.734375 0 L 11.875 -43.796875 Z M 17.21875 -18.84375 L 26.09375 0 L 22.859375 0 L 14.765625 -17.28125 Z M 17.21875 -18.84375 "/></g></g></g><g fill="#000000" fill-opacity="1"><g transform="translate(599.11442, 472.749987)"><g/></g></g><g fill="#000000" fill-opacity="1"><g transform="translate(617.654385, 472.749987)"><g><path d="M 3.71875 0 L 11.9375 -35.515625 C 12.375 -37.398438 13.023438 -38.984375 13.890625 -40.265625 C 14.753906 -41.546875 15.84375 -42.503906 17.15625 -43.140625 C 18.476562 -43.773438 20.039062 -44.09375 21.84375 -44.09375 C 22.84375 -44.09375 23.769531 -43.960938 24.625 -43.703125 C 25.488281 -43.441406 26.179688 -43.070312 26.703125 -42.59375 L 25.625 -40.140625 C 25.21875 -40.535156 24.675781 -40.84375 24 -41.0625 C 23.320312 -41.289062 22.601562 -41.40625 21.84375 -41.40625 C 19.800781 -41.40625 18.226562 -40.851562 17.125 -39.75 C 16.03125 -38.644531 15.203125 -36.894531 14.640625 -34.5 L 13.625 -30 L 13.375 -28.921875 L 6.71875 0 Z M 3.953125 -27.421875 L 4.5625 -30 L 23.453125 -30 L 22.859375 -27.421875 Z M 3.953125 -27.421875 "/></g></g></g><g fill="#000000" fill-opacity="1"><g transform="translate(638.774364, 472.749987)"><g><path d="M 16.375 0.546875 C 13.582031 0.546875 11.191406 -0.0625 9.203125 -1.28125 C 7.222656 -2.507812 5.710938 -4.148438 4.671875 -6.203125 C 3.640625 -8.265625 3.125 -10.515625 3.125 -12.953125 C 3.125 -16.398438 3.769531 -19.441406 5.0625 -22.078125 C 6.363281 -24.722656 8.15625 -26.796875 10.4375 -28.296875 C 12.71875 -29.796875 15.378906 -30.546875 18.421875 -30.546875 C 21.296875 -30.546875 23.703125 -29.929688 25.640625 -28.703125 C 27.585938 -27.484375 29.070312 -25.863281 30.09375 -23.84375 C 31.113281 -21.820312 31.625 -19.570312 31.625 -17.09375 C 31.625 -13.695312 30.984375 -10.664062 29.703125 -8 C 28.421875 -5.34375 26.640625 -3.253906 24.359375 -1.734375 C 22.078125 -0.210938 19.414062 0.546875 16.375 0.546875 Z M 16.5 -2.046875 C 18.21875 -2.046875 19.816406 -2.394531 21.296875 -3.09375 C 22.773438 -3.789062 24.0625 -4.804688 25.15625 -6.140625 C 26.257812 -7.484375 27.101562 -9.078125 27.6875 -10.921875 C 28.269531 -12.765625 28.5625 -14.785156 28.5625 -16.984375 C 28.5625 -19.140625 28.171875 -21.035156 27.390625 -22.671875 C 26.609375 -24.316406 25.457031 -25.609375 23.9375 -26.546875 C 22.414062 -27.484375 20.535156 -27.953125 18.296875 -27.953125 C 16.578125 -27.953125 14.96875 -27.601562 13.46875 -26.90625 C 11.96875 -26.207031 10.675781 -25.195312 9.59375 -23.875 C 8.519531 -22.5625 7.679688 -20.984375 7.078125 -19.140625 C 6.484375 -17.296875 6.1875 -15.273438 6.1875 -13.078125 C 6.1875 -10.960938 6.582031 -9.070312 7.375 -7.40625 C 8.175781 -5.75 9.347656 -4.441406 10.890625 -3.484375 C 12.429688 -2.523438 14.300781 -2.046875 16.5 -2.046875 Z M 16.5 -2.046875 "/></g></g></g><g fill="#000000" fill-opacity="1"><g transform="translate(673.514322, 472.749987)"><g><path d="M 1.734375 0 L 8.703125 -30 L 11.21875 -30 L 9.84375 -22.078125 L 9.359375 -22.5 C 10.035156 -24.101562 10.914062 -25.515625 12 -26.734375 C 13.082031 -27.953125 14.34375 -28.898438 15.78125 -29.578125 C 17.21875 -30.253906 18.757812 -30.59375 20.40625 -30.59375 C 21.082031 -30.59375 21.707031 -30.539062 22.28125 -30.4375 C 22.863281 -30.34375 23.359375 -30.15625 23.765625 -29.875 L 22.796875 -27.125 C 22.398438 -27.363281 21.929688 -27.539062 21.390625 -27.65625 C 20.847656 -27.78125 20.238281 -27.84375 19.5625 -27.84375 C 17.800781 -27.84375 16.191406 -27.398438 14.734375 -26.515625 C 13.273438 -25.640625 12.023438 -24.398438 10.984375 -22.796875 C 9.941406 -21.203125 9.179688 -19.300781 8.703125 -17.09375 L 4.734375 0 Z M 1.734375 0 "/></g></g></g><g fill="#000000" fill-opacity="1"><g transform="translate(695.414284, 472.749987)"><g/></g></g><g fill="#000000" fill-opacity="1"><g transform="translate(713.954261, 472.749987)"><g><path d="M 1.734375 0 L 8.703125 -30 L 11.34375 -30 L 9.84375 -22.5 L 9.421875 -22.6875 C 10.265625 -25.125 11.773438 -27.050781 13.953125 -28.46875 C 16.128906 -29.882812 18.695312 -30.59375 21.65625 -30.59375 C 24.019531 -30.59375 25.988281 -30.082031 27.5625 -29.0625 C 29.144531 -28.050781 30.242188 -26.59375 30.859375 -24.6875 C 31.484375 -22.789062 31.5 -20.519531 30.90625 -17.875 L 26.765625 0 L 23.765625 0 L 27.84375 -17.8125 C 28.601562 -21.0625 28.320312 -23.5625 27 -25.3125 C 25.675781 -27.070312 23.632812 -27.953125 20.875 -27.953125 C 18.675781 -27.953125 16.753906 -27.484375 15.109375 -26.546875 C 13.472656 -25.609375 12.113281 -24.304688 11.03125 -22.640625 C 9.957031 -20.984375 9.160156 -19.054688 8.640625 -16.859375 L 4.734375 0 Z M 1.734375 0 "/></g></g></g><g fill="#000000" fill-opacity="1"><g transform="translate(748.874212, 472.749987)"><g><path d="M 16.140625 0.546875 C 13.378906 0.546875 11.019531 -0.0507812 9.0625 -1.25 C 7.101562 -2.457031 5.625 -4.085938 4.625 -6.140625 C 3.625 -8.203125 3.125 -10.472656 3.125 -12.953125 C 3.125 -16.078125 3.722656 -18.976562 4.921875 -21.65625 C 6.117188 -24.34375 7.878906 -26.492188 10.203125 -28.109375 C 12.523438 -29.734375 15.320312 -30.546875 18.59375 -30.546875 C 21 -30.546875 23.050781 -30.023438 24.75 -28.984375 C 26.445312 -27.941406 27.753906 -26.53125 28.671875 -24.75 C 29.597656 -22.96875 30.0625 -20.9375 30.0625 -18.65625 C 30.0625 -18.0625 30.019531 -17.421875 29.9375 -16.734375 C 29.851562 -16.054688 29.710938 -15.378906 29.515625 -14.703125 L 4.6875 -14.703125 L 4.6875 -17.28125 L 28.140625 -17.28125 L 26.875 -16.3125 C 26.957031 -16.71875 27.019531 -17.117188 27.0625 -17.515625 C 27.101562 -17.921875 27.125 -18.320312 27.125 -18.71875 C 27.125 -20.476562 26.78125 -22.046875 26.09375 -23.421875 C 25.414062 -24.804688 24.425781 -25.90625 23.125 -26.71875 C 21.832031 -27.539062 20.265625 -27.953125 18.421875 -27.953125 C 16.378906 -27.953125 14.585938 -27.539062 13.046875 -26.71875 C 11.503906 -25.90625 10.210938 -24.785156 9.171875 -23.359375 C 8.140625 -21.941406 7.375 -20.332031 6.875 -18.53125 C 6.375 -16.738281 6.125 -14.863281 6.125 -12.90625 C 6.125 -10.78125 6.539062 -8.90625 7.375 -7.28125 C 8.21875 -5.664062 9.410156 -4.390625 10.953125 -3.453125 C 12.492188 -2.515625 14.300781 -2.046875 16.375 -2.046875 C 18.65625 -2.078125 20.601562 -2.601562 22.21875 -3.625 C 23.84375 -4.644531 25.132812 -5.957031 26.09375 -7.5625 L 28.5 -6 C 27.65625 -4.71875 26.625 -3.578125 25.40625 -2.578125 C 24.1875 -1.578125 22.804688 -0.804688 21.265625 -0.265625 C 19.722656 0.273438 18.015625 0.546875 16.140625 0.546875 Z M 16.140625 0.546875 "/></g></g></g><g fill="#000000" fill-opacity="1"><g transform="translate(781.934177, 472.749987)"><g><path d="M 7.859375 0 L 4.859375 -30 L 7.734375 -30 L 10.203125 -3.84375 L 24.953125 -30 L 27.953125 -30 L 31.375 -3.71875 L 45.65625 -30 L 48.90625 -30 L 32.21875 0 L 29.21875 0 L 25.6875 -25.984375 L 10.921875 0 Z M 7.859375 0 "/></g></g></g><g fill="#000000" fill-opacity="1"><g transform="translate(828.974153, 472.749987)"><g/></g></g><g fill="#000000" fill-opacity="1"><g transform="translate(847.514131, 472.749987)"><g><path d="M 16.375 0.546875 C 13.582031 0.546875 11.191406 -0.0625 9.203125 -1.28125 C 7.222656 -2.507812 5.710938 -4.148438 4.671875 -6.203125 C 3.640625 -8.265625 3.125 -10.515625 3.125 -12.953125 C 3.125 -16.398438 3.769531 -19.441406 5.0625 -22.078125 C 6.363281 -24.722656 8.15625 -26.796875 10.4375 -28.296875 C 12.71875 -29.796875 15.378906 -30.546875 18.421875 -30.546875 C 21.296875 -30.546875 23.703125 -29.929688 25.640625 -28.703125 C 27.585938 -27.484375 29.070312 -25.863281 30.09375 -23.84375 C 31.113281 -21.820312 31.625 -19.570312 31.625 -17.09375 C 31.625 -13.695312 30.984375 -10.664062 29.703125 -8 C 28.421875 -5.34375 26.640625 -3.253906 24.359375 -1.734375 C 22.078125 -0.210938 19.414062 0.546875 16.375 0.546875 Z M 16.5 -2.046875 C 18.21875 -2.046875 19.816406 -2.394531 21.296875 -3.09375 C 22.773438 -3.789062 24.0625 -4.804688 25.15625 -6.140625 C 26.257812 -7.484375 27.101562 -9.078125 27.6875 -10.921875 C 28.269531 -12.765625 28.5625 -14.785156 28.5625 -16.984375 C 28.5625 -19.140625 28.171875 -21.035156 27.390625 -22.671875 C 26.609375 -24.316406 25.457031 -25.609375 23.9375 -26.546875 C 22.414062 -27.484375 20.535156 -27.953125 18.296875 -27.953125 C 16.578125 -27.953125 14.96875 -27.601562 13.46875 -26.90625 C 11.96875 -26.207031 10.675781 -25.195312 9.59375 -23.875 C 8.519531 -22.5625 7.679688 -20.984375 7.078125 -19.140625 C 6.484375 -17.296875 6.1875 -15.273438 6.1875 -13.078125 C 6.1875 -10.960938 6.582031 -9.070312 7.375 -7.40625 C 8.175781 -5.75 9.347656 -4.441406 10.890625 -3.484375 C 12.429688 -2.523438 14.300781 -2.046875 16.5 -2.046875 Z M 16.5 -2.046875 "/></g></g></g><g fill="#000000" fill-opacity="1"><g transform="translate(882.254088, 472.749987)"><g><path d="M 1.734375 0 L 8.703125 -30 L 11.34375 -30 L 9.84375 -22.5 L 9.421875 -22.6875 C 10.265625 -25.125 11.773438 -27.050781 13.953125 -28.46875 C 16.128906 -29.882812 18.695312 -30.59375 21.65625 -30.59375 C 24.019531 -30.59375 25.988281 -30.082031 27.5625 -29.0625 C 29.144531 -28.050781 30.242188 -26.59375 30.859375 -24.6875 C 31.484375 -22.789062 31.5 -20.519531 30.90625 -17.875 L 26.765625 0 L 23.765625 0 L 27.84375 -17.8125 C 28.601562 -21.0625 28.320312 -23.5625 27 -25.3125 C 25.675781 -27.070312 23.632812 -27.953125 20.875 -27.953125 C 18.675781 -27.953125 16.753906 -27.484375 15.109375 -26.546875 C 13.472656 -25.609375 12.113281 -24.304688 11.03125 -22.640625 C 9.957031 -20.984375 9.160156 -19.054688 8.640625 -16.859375 L 4.734375 0 Z M 1.734375 0 "/></g></g></g><g fill="#000000" fill-opacity="1"><g transform="translate(917.174039, 472.749987)"><g><path d="M 16.140625 0.546875 C 13.378906 0.546875 11.019531 -0.0507812 9.0625 -1.25 C 7.101562 -2.457031 5.625 -4.085938 4.625 -6.140625 C 3.625 -8.203125 3.125 -10.472656 3.125 -12.953125 C 3.125 -16.078125 3.722656 -18.976562 4.921875 -21.65625 C 6.117188 -24.34375 7.878906 -26.492188 10.203125 -28.109375 C 12.523438 -29.734375 15.320312 -30.546875 18.59375 -30.546875 C 21 -30.546875 23.050781 -30.023438 24.75 -28.984375 C 26.445312 -27.941406 27.753906 -26.53125 28.671875 -24.75 C 29.597656 -22.96875 30.0625 -20.9375 30.0625 -18.65625 C 30.0625 -18.0625 30.019531 -17.421875 29.9375 -16.734375 C 29.851562 -16.054688 29.710938 -15.378906 29.515625 -14.703125 L 4.6875 -14.703125 L 4.6875 -17.28125 L 28.140625 -17.28125 L 26.875 -16.3125 C 26.957031 -16.71875 27.019531 -17.117188 27.0625 -17.515625 C 27.101562 -17.921875 27.125 -18.320312 27.125 -18.71875 C 27.125 -20.476562 26.78125 -22.046875 26.09375 -23.421875 C 25.414062 -24.804688 24.425781 -25.90625 23.125 -26.71875 C 21.832031 -27.539062 20.265625 -27.953125 18.421875 -27.953125 C 16.378906 -27.953125 14.585938 -27.539062 13.046875 -26.71875 C 11.503906 -25.90625 10.210938 -24.785156 9.171875 -23.359375 C 8.140625 -21.941406 7.375 -20.332031 6.875 -18.53125 C 6.375 -16.738281 6.125 -14.863281 6.125 -12.90625 C 6.125 -10.78125 6.539062 -8.90625 7.375 -7.28125 C 8.21875 -5.664062 9.410156 -4.390625 10.953125 -3.453125 C 12.492188 -2.515625 14.300781 -2.046875 16.375 -2.046875 C 18.65625 -2.078125 20.601562 -2.601562 22.21875 -3.625 C 23.84375 -4.644531 25.132812 -5.957031 26.09375 -7.5625 L 28.5 -6 C 27.65625 -4.71875 26.625 -3.578125 25.40625 -2.578125 C 24.1875 -1.578125 22.804688 -0.804688 21.265625 -0.265625 C 19.722656 0.273438 18.015625 0.546875 16.140625 0.546875 Z M 16.140625 0.546875 "/></g></g></g><g fill="#000000" fill-opacity="1"><g transform="translate(950.234005, 472.749987)"><g><path d="M 14.640625 0.65625 C 12.242188 0.65625 10.125 0.273438 8.28125 -0.484375 C 6.4375 -1.242188 4.9375 -2.300781 3.78125 -3.65625 C 2.625 -5.019531 1.84375 -6.617188 1.4375 -8.453125 L 4.265625 -9.65625 C 4.742188 -7.21875 5.863281 -5.328125 7.625 -3.984375 C 9.382812 -2.648438 11.742188 -1.984375 14.703125 -1.984375 C 17.265625 -1.984375 19.242188 -2.5625 20.640625 -3.71875 C 22.035156 -4.875 22.734375 -6.351562 22.734375 -8.15625 C 22.734375 -9.4375 22.375 -10.457031 21.65625 -11.21875 C 20.9375 -11.976562 19.757812 -12.597656 18.125 -13.078125 L 12.421875 -14.703125 C 10.097656 -15.335938 8.335938 -16.273438 7.140625 -17.515625 C 5.941406 -18.753906 5.34375 -20.273438 5.34375 -22.078125 C 5.34375 -23.753906 5.800781 -25.222656 6.71875 -26.484375 C 7.632812 -27.742188 8.921875 -28.742188 10.578125 -29.484375 C 12.242188 -30.222656 14.175781 -30.59375 16.375 -30.59375 C 19.257812 -30.59375 21.769531 -29.929688 23.90625 -28.609375 C 26.050781 -27.296875 27.441406 -25.28125 28.078125 -22.5625 L 25.375 -21.296875 C 25.0625 -22.773438 24.472656 -24.015625 23.609375 -25.015625 C 22.742188 -26.015625 21.671875 -26.753906 20.390625 -27.234375 C 19.117188 -27.710938 17.703125 -27.953125 16.140625 -27.953125 C 13.660156 -27.953125 11.726562 -27.441406 10.34375 -26.421875 C 8.96875 -25.410156 8.28125 -24.0625 8.28125 -22.375 C 8.28125 -20.976562 8.726562 -19.890625 9.625 -19.109375 C 10.53125 -18.328125 11.722656 -17.71875 13.203125 -17.28125 L 19.3125 -15.546875 C 21.394531 -14.941406 22.976562 -14.054688 24.0625 -12.890625 C 25.144531 -11.734375 25.6875 -10.273438 25.6875 -8.515625 C 25.6875 -6.679688 25.210938 -5.070312 24.265625 -3.6875 C 23.328125 -2.3125 22.023438 -1.242188 20.359375 -0.484375 C 18.703125 0.273438 16.796875 0.65625 14.640625 0.65625 Z M 14.640625 0.65625 "/></g></g></g><g fill="#000000" fill-opacity="1"><g transform="translate(980.29397, 472.749987)"><g><path d="M 3.421875 0.484375 C 2.703125 0.484375 2.109375 0.265625 1.640625 -0.171875 C 1.179688 -0.617188 0.953125 -1.179688 0.953125 -1.859375 C 0.953125 -2.773438 1.222656 -3.515625 1.765625 -4.078125 C 2.304688 -4.640625 2.976562 -4.921875 3.78125 -4.921875 C 4.457031 -4.921875 5.023438 -4.695312 5.484375 -4.25 C 5.953125 -3.8125 6.1875 -3.253906 6.1875 -2.578125 C 6.1875 -1.660156 5.914062 -0.921875 5.375 -0.359375 C 4.832031 0.203125 4.179688 0.484375 3.421875 0.484375 Z M 3.421875 0.484375 "/></g></g></g><g fill="#000000" fill-opacity="1"><g transform="translate(612.369119, 621.000685)"><g><path d="M 3.359375 0 L 3.359375 -34.5625 L 6.125 -34.5625 L 6.125 -18.140625 L 22.5625 -34.5625 L 26.203125 -34.5625 L 9.671875 -17.953125 L 27.640625 0 L 23.953125 0 L 6.125 -17.65625 L 6.125 0 Z M 3.359375 0 "/></g></g></g><g fill="#000000" fill-opacity="1"><g transform="translate(640.017174, 621.000685)"><g><path d="M 14.046875 0.71875 C 11.554688 0.71875 9.40625 0.164062 7.59375 -0.9375 C 5.789062 -2.050781 4.394531 -3.628906 3.40625 -5.671875 C 2.414062 -7.710938 1.921875 -10.125 1.921875 -12.90625 C 1.921875 -15.738281 2.410156 -18.179688 3.390625 -20.234375 C 4.378906 -22.296875 5.769531 -23.878906 7.5625 -24.984375 C 9.363281 -26.085938 11.503906 -26.640625 13.984375 -26.640625 C 16.503906 -26.640625 18.65625 -26.066406 20.4375 -24.921875 C 22.21875 -23.773438 23.578125 -22.125 24.515625 -19.96875 C 25.453125 -17.8125 25.894531 -15.210938 25.84375 -12.171875 L 22.96875 -12.171875 L 22.96875 -13.125 C 22.882812 -16.675781 22.082031 -19.378906 20.5625 -21.234375 C 19.039062 -23.097656 16.867188 -24.03125 14.046875 -24.03125 C 11.109375 -24.03125 8.84375 -23.0625 7.25 -21.125 C 5.664062 -19.195312 4.875 -16.472656 4.875 -12.953125 C 4.875 -9.472656 5.664062 -6.769531 7.25 -4.84375 C 8.84375 -2.925781 11.085938 -1.96875 13.984375 -1.96875 C 15.984375 -1.96875 17.734375 -2.4375 19.234375 -3.375 C 20.734375 -4.3125 21.921875 -5.648438 22.796875 -7.390625 L 25.296875 -6.28125 C 24.253906 -4.039062 22.75 -2.3125 20.78125 -1.09375 C 18.8125 0.113281 16.566406 0.71875 14.046875 0.71875 Z M 3.8125 -12.171875 L 3.8125 -14.65625 L 24.28125 -14.65625 L 24.28125 -12.171875 Z M 3.8125 -12.171875 "/></g></g></g><g fill="#000000" fill-opacity="1"><g transform="translate(667.80923, 621.000685)"><g><path d="M 22.34375 0 L 22.34375 -13.484375 C 22.34375 -15.117188 22.175781 -16.578125 21.84375 -17.859375 C 21.519531 -19.140625 21.023438 -20.226562 20.359375 -21.125 C 19.703125 -22.019531 18.875 -22.695312 17.875 -23.15625 C 16.875 -23.625 15.691406 -23.859375 14.328125 -23.859375 C 12.921875 -23.859375 11.703125 -23.613281 10.671875 -23.125 C 9.640625 -22.632812 8.789062 -21.945312 8.125 -21.0625 C 7.457031 -20.1875 6.957031 -19.144531 6.625 -17.9375 C 6.300781 -16.726562 6.140625 -15.410156 6.140625 -13.984375 L 3.953125 -14.25 C 3.953125 -17.050781 4.425781 -19.359375 5.375 -21.171875 C 6.332031 -22.992188 7.617188 -24.335938 9.234375 -25.203125 C 10.847656 -26.078125 12.664062 -26.515625 14.6875 -26.515625 C 16.113281 -26.515625 17.390625 -26.304688 18.515625 -25.890625 C 19.640625 -25.472656 20.617188 -24.882812 21.453125 -24.125 C 22.285156 -23.363281 22.972656 -22.46875 23.515625 -21.4375 C 24.054688 -20.40625 24.457031 -19.273438 24.71875 -18.046875 C 24.988281 -16.816406 25.125 -15.53125 25.125 -14.1875 L 25.125 0 Z M 3.359375 0 L 3.359375 -25.921875 L 5.875 -25.921875 L 5.875 -20.09375 L 6.140625 -20.09375 L 6.140625 0 Z M 3.359375 0 "/></g></g></g><g fill="#000000" fill-opacity="1"><g transform="translate(705.417306, 621.000685)"><g><path d="M 3.359375 0 L 3.359375 -34.5625 L 16.390625 -34.5625 C 16.722656 -34.5625 17.085938 -34.546875 17.484375 -34.515625 C 17.878906 -34.492188 18.289062 -34.445312 18.71875 -34.375 C 20.445312 -34.09375 21.929688 -33.46875 23.171875 -32.5 C 24.410156 -31.539062 25.359375 -30.328125 26.015625 -28.859375 C 26.671875 -27.390625 27 -25.78125 27 -24.03125 C 27 -22.25 26.671875 -20.625 26.015625 -19.15625 C 25.359375 -17.695312 24.410156 -16.484375 23.171875 -15.515625 C 21.929688 -14.546875 20.445312 -13.925781 18.71875 -13.65625 C 18.289062 -13.59375 17.878906 -13.546875 17.484375 -13.515625 C 17.085938 -13.484375 16.722656 -13.46875 16.390625 -13.46875 L 6.125 -13.46875 L 6.125 0 Z M 6.125 -16.171875 L 16.34375 -16.171875 C 16.632812 -16.171875 16.96875 -16.1875 17.34375 -16.21875 C 17.71875 -16.25 18.097656 -16.300781 18.484375 -16.375 C 19.734375 -16.625 20.769531 -17.128906 21.59375 -17.890625 C 22.425781 -18.648438 23.050781 -19.566406 23.46875 -20.640625 C 23.882812 -21.710938 24.09375 -22.84375 24.09375 -24.03125 C 24.09375 -25.207031 23.882812 -26.328125 23.46875 -27.390625 C 23.050781 -28.453125 22.425781 -29.363281 21.59375 -30.125 C 20.769531 -30.882812 19.734375 -31.394531 18.484375 -31.65625 C 18.097656 -31.738281 17.71875 -31.796875 17.34375 -31.828125 C 16.96875 -31.859375 16.632812 -31.875 16.34375 -31.875 L 6.125 -31.875 Z M 6.125 -16.171875 "/></g></g></g><g fill="#000000" fill-opacity="1"><g transform="translate(733.85736, 621.000685)"><g><path d="M 2.875 4.625 L 3.078125 3.140625 C 3.660156 3.171875 4.070312 3.035156 4.3125 2.734375 C 4.5625 2.441406 4.703125 2.050781 4.734375 1.5625 C 4.773438 1.082031 4.78125 0.5625 4.75 0 L 2.875 0 L 2.875 -4.6875 L 6.359375 -4.6875 L 6.359375 1.203125 C 6.359375 2.460938 6.03125 3.40625 5.375 4.03125 C 4.71875 4.65625 3.882812 4.851562 2.875 4.625 Z M 2.875 4.625 "/></g></g></g><g fill="#000000" fill-opacity="1"><g transform="translate(755.57741, 621.000685)"><g><path d="M 17.15625 0.71875 C 13.71875 0.71875 10.828125 -0.0390625 8.484375 -1.5625 C 6.148438 -3.09375 4.390625 -5.207031 3.203125 -7.90625 C 2.023438 -10.613281 1.4375 -13.738281 1.4375 -17.28125 C 1.4375 -20.8125 2.023438 -23.929688 3.203125 -26.640625 C 4.390625 -29.347656 6.148438 -31.460938 8.484375 -32.984375 C 10.828125 -34.515625 13.71875 -35.28125 17.15625 -35.28125 C 21.175781 -35.28125 24.4375 -34.238281 26.9375 -32.15625 C 29.445312 -30.082031 31.148438 -27.300781 32.046875 -23.8125 L 29.1875 -23.109375 C 28.445312 -26.003906 27.070312 -28.300781 25.0625 -30 C 23.0625 -31.707031 20.425781 -32.5625 17.15625 -32.5625 C 14.320312 -32.5625 11.960938 -31.914062 10.078125 -30.625 C 8.203125 -29.332031 6.789062 -27.53125 5.84375 -25.21875 C 4.894531 -22.914062 4.410156 -20.269531 4.390625 -17.28125 C 4.359375 -14.289062 4.816406 -11.644531 5.765625 -9.34375 C 6.722656 -7.050781 8.148438 -5.25 10.046875 -3.9375 C 11.953125 -2.632812 14.320312 -1.984375 17.15625 -1.984375 C 20.425781 -1.984375 23.0625 -2.835938 25.0625 -4.546875 C 27.070312 -6.265625 28.445312 -8.566406 29.1875 -11.453125 L 32.046875 -10.75 C 31.148438 -7.257812 29.445312 -4.472656 26.9375 -2.390625 C 24.4375 -0.316406 21.175781 0.71875 17.15625 0.71875 Z M 17.15625 0.71875 "/></g></g></g><g fill="#000000" fill-opacity="1"><g transform="translate(789.537475, 621.000685)"><g><path d="M 12.859375 0 L 12.859375 -31.875 L 0.484375 -31.875 L 0.484375 -34.5625 L 28.015625 -34.5625 L 28.015625 -31.875 L 15.625 -31.875 L 15.625 0 Z M 12.859375 0 "/></g></g></g><g fill="#000000" fill-opacity="1"><g transform="translate(323.037645, 319.440458)"><g><path d="M 47.0625 -89.046875 L 39 -62.40625 L 33.53125 -62.40625 L 39.78125 -89.046875 Z M 29.90625 -89.046875 L 21.84375 -62.40625 L 16.375 -62.40625 L 22.625 -89.046875 Z M 29.90625 -89.046875 "/></g></g></g><g fill="#000000" fill-opacity="1"><g transform="translate(986.423981, 503.016616)"><g><path d="M 47.0625 -89.046875 L 39 -62.40625 L 33.53125 -62.40625 L 39.78125 -89.046875 Z M 29.90625 -89.046875 L 21.84375 -62.40625 L 16.375 -62.40625 L 22.625 -89.046875 Z M 29.90625 -89.046875 "/></g></g></g></svg>