
        <svg xmlns="http://www.w3.org/2000/svg" xmlns:xlink="http://www.w3.org/1999/xlink" version="1.1" width="3162.2528907124206" 
        height="645.0509557662534" viewBox="0 0 3162.2528907124206 645.0509557662534">
			
			<g transform="scale(8.112644535621037) translate(10, 10)">
				<defs id="SvgjsDefs1498"></defs><g id="SvgjsG1499" featureKey="symbolFeature-0" transform="matrix(0.8947648976423555,0,0,0.8947648976423555,-1.6349351631655045,-14.980265366002683)" fill="#111111"><g xmlns="http://www.w3.org/2000/svg"><path d="M97.634,76.363c-0.629-0.664-1.131-2.652-1.443-3.582c-0.567-1.69-2.281-7.887-2.452-9.77   c-0.462-5.084-0.941-8.618-1.145-10.537c-0.771-7.272-0.191-10.027-0.796-11.714c-1.246-3.478-9.263-17.347-16.192-19.195   c-7-1.866-7.87,0.425-14.028,0.11c-4.602-0.235-13.961-4.888-16.768-4.932c-2.853-0.045-5.026,1.66-13.809,1.863   c-1.319,0.03-6.431-0.747-8.658,0.109c-1.236,0.475-2.302,1.644-3.507,2.74c-1.205,1.096-2.959,3.397-3.726,4.712   c-0.767,1.315-1.753,3.507-2.521,5.042c-0.767,1.534-1.863,3.068-1.863,3.616s-1.644,2.411-1.425,2.959   c0.219,0.548-0.893,1.683-0.767,2.849c0.048,0.45-0.737,1.799-0.736,2.291c-1.939,0.519-5.621,0.23-5.949,0.669   s3.116,1.559,5.758,1.399C6.873,45.136,2.64,44.55,2.26,45.216c-0.255,0.446,4.177,1.421,5.093,1.421   c0.18,0.46-0.208,1.538-0.024,1.889c0.15,0.288,0.173,2.324,0.438,2.708c0.184,0.266,0.33,1.349,0.439,1.677   c0.109,0.329,3.199,10.925,11.179,8.658c0.705-0.2,3.406-1.613,3.507-4.713c0.043-1.313-1.087-3.999-2.01-4.35   c-1.03-0.39-2.158,0.195-2.191,0.706c-0.032,0.508,0.533-0.101,0.585,0.355c0.078,0.689-0.637,0.29-0.487,1.064   c0.059,0.303,0.611,0.014,0.884,0.994c0.064,0.232-0.376,1.457-0.945,1.668c-2.62,0.974-4.944-3.864-4.603-7.563   c0.403-4.368,2.541-7.126,2.556-7.283c0.94,0.063,1.828,0.05,2.267-0.06s-0.006,0.619,0.877,0.658   c0.867,0.037,1.011-0.737,1.424-1.097c1.448-0.298,1.342-1.028,1.753-1.096c0.866-0.141,4.214-0.221,4.947-0.921   c-0.032,0.955,0.032,3.819,0.955,4.456c1.143,0.788,5.39-1.549,6.048-1.878c0.657-0.329-0.813,6.37-0.923,7.575   c-0.11,1.207-1.153,2.499-1.592,4.362s-1.97,7.99-2.737,9.963s-2.133,5.659-2.133,7.416c0,3.979-1.147,5.545-1.496,5.961   c-0.704,0.84-3.032,2.286-2.802,2.984c0.529,1.599,2.377,1.765,3.693,1.655c1.315-0.11,4.849,0.434,5.094-1.225   c0.317-2.144,0.219-2.182,0.262-3.086c0.087-1.865,4.952-11.68,6.028-12.933c0.929-1.081,4.323-6.222,5.868-7.585   c1.56,4.966,3.587,8.786,3.776,10.105c0.267,1.863,2.014,6.606,2.63,7.892c0.438,0.91,0.38,2.93-0.369,3.538   c-0.84,0.684-3.395,1.972-2.823,3.07c0.764,1.464,9.24,1.196,9.685,0.429c0.9-1.554-0.646-6.827-0.295-7.719   c0.323-0.822-0.828-6.113-1.157-7.977s-1.484-8.957,0-13.48c4.69,1.595,9.975,3.409,14.431,3.632   c1.782,2.101,4.646,4.266,5.516,8.753c0.568,2.937-0.647,10.217-1.206,10.959c-1.477,1.965-3.065,2.991-2.408,4.196   c0.658,1.206,2.878,1.302,5.069,1.302c2.192,0,3.422-0.863,3.86-1.96c0.438-1.095,0.657-3.726,0.657-4.821   s-0.793-11.967,0.798-14.163c6.207,3.215,8.395,15.318,8.683,17.091c0.135,0.83-1.012,2.771,0.548,3.178   c1.379,0.359,5.284-0.108,6.112-1.712C98.014,79.34,98.615,77.4,97.634,76.363z M7.268,46.302   c-0.833,0.077-4.656-0.955-4.656-1.052s3.81-0.145,4.984,0.094C7.594,45.766,7.556,45.803,7.268,46.302z M24.73,81.619   c-0.231,0.416-0.933-0.239-1.147-0.673s0.144-0.945,0.572-0.945C24.56,80.001,24.852,81.401,24.73,81.619z M26.9,82.009   c-0.114,0.239-1.68,0.318-1.795-0.072c-0.131-0.443,0.458-1.087,0.843-1.093C26.229,80.839,27.099,81.592,26.9,82.009z    M73.088,81.492c-0.518,0.04-0.955-0.55-1.001-0.766c-0.091-0.426,0.155-1.107,0.433-1.078   C73.116,79.712,73.864,81.432,73.088,81.492z M74.576,81.938c-0.398,0.067-1.007-0.153-1.007-0.431   c0-0.276,0.411-0.745,0.641-0.639C74.569,81.035,75.052,81.858,74.576,81.938z M17.602,57.973c0.937,0.285,1.773-0.098,2.282-1.142   c0.219-0.448,0.216-1.211,0.108-1.602c-0.045-0.169,0.022-0.293,0.164-0.373c0.323,0.116,0.79,0.514,1.273,0.049   c0.263-0.253-0.096-1.156-0.09-1.479c0.011-0.614,1.175,2.174,1.241,3.003c0.075,0.951-0.401,2.291-1.542,3.486   c-0.937,0.981-2.729,1.887-4.727,1.439C10.359,60.021,8.024,51.439,8.026,50c0.001-0.905,4.261-2.393,5.052-2.676   c0.711-0.254,0.813,0.148,0.694,0.949C12.753,55.12,15.607,57.365,17.602,57.973z M2.362,43.68   c0.153-0.053,7.583,0.399,11.165-3.231c1.101,0.041,2.527-0.188,3.329,0.938C8.865,46.958,2.166,43.747,2.362,43.68z    M29.471,43.626c-0.747-0.19-0.949-2.122-1.111-3.178c-0.173-1.135,1.495-7.771,1.879-9.373c0.384-1.601,2.818-4.675,5.059-6.724   c2.241-2.049,0.128-2.113-0.705-2.113c-0.832,0-4.802,1.985-5.891,3.202s1.369,4.234-0.64,5.828c-1.454,1.153-3.603-0.486-4.803,0   c-2.642,1.072-2.187,4.353-2.498,5.955c-0.436,2.248-1.852,3.438-3.16,2.981c-5.95-2.078-4.402,1.258-8.722,2.032   c-0.754,0.135,1.538-5.653,5.462-13.494c0.217-0.434,1.304-2.597,2.129-3.558c0.859-1,3.263-4.639,6.021-6.106   c1.059-0.563,8.715,0.267,10.798,0.181c2.975-0.123,8.15-1.63,9.5-0.927c0.364,0.189,2.882,1.152,3.842,2.241   c0.96,1.088,4.167,4.589,4.866,5.892c0.332,0.618-0.768,4.867-2.689,7.492C46.889,36.583,31.864,44.239,29.471,43.626z    M48.498,82.54c-0.344,0.013-0.91-0.197-0.922-0.628c-0.007-0.275,0.471-0.791,0.709-0.693   C48.815,81.435,48.888,82.526,48.498,82.54z M51.327,82.759c-0.538,0.386-2.165-0.033-2.298-0.219   c-0.37-0.516,0.507-1.416,1.136-1.423C50.516,81.113,51.865,82.375,51.327,82.759z M93.33,81.302   c-0.087,0.31-1.604,0.157-2.033-0.121c-0.421-0.272-0.041-0.949,0.609-0.999C92.323,80.15,93.489,80.738,93.33,81.302z    M93.723,81.402c-0.232-0.292,0.363-1.114,0.705-1.189c0.501-0.111,0.839,0.322,1.029,0.614   C95.758,81.29,93.83,81.536,93.723,81.402z M97.596,79.153c-0.139,0.504-0.681,1.418-2.382,0.298   c-0.578-0.381-1.543,0.729-1.869,0.426c-0.723-0.679-1.683-0.467-1.958-0.229c-0.267,0.229,0.25-1.356,0.164-1.572   c-0.383-0.973-0.972-6.539-2.59-9.601c-1.763-3.334-1.349-4.719-6.02-8.069c-3.998-2.867-3.444-6.593-3.509-8.001   c-0.064-1.41,3.765-11.659,3.893-13.003s-0.704-4.291-1.536-3.458c-0.833,0.832-3.164,8.507-5.892,10.822   c-4.122,3.498-10.438,4.419-14.921,2.497c-4.482-1.921-2.346-10.871-3.971-10.758c-0.515,0.035-0.832,11.975-1.28,13   c-0.448,1.024-1.428,5.143-1.556,6.487c-0.129,1.345,1.863,15.34,1.991,16.492c0.038,0.338,0.865,7.414,0.528,7.533   c-1.558,0.555-3.945,1.627-5.347-1.164c-0.474-0.944-2.428,0.166-2.401-0.035c0.064-0.485,2.835-1.604,2.729-3.633   c-0.112-2.14-2.894-8.397-3.18-9.479c-1.649-6.233-4.729-11.794-4.677-13.346c0.08-2.39-1.472-5.545-2.495-6.571   c-2.046-2.051,3.929-7.725,6.98-8.709c2.953-0.953,5.36-11.472,5.154-13.118c-0.419-3.361-9.544-8.187-8.125-8.09   c4.063,0.274,9.561,5.302,19.556,4.75c3.011-0.166,6.128-1.396,11.595,0.551c1.808,0.644,14.667,12.911,14.58,19.381   c-0.239,17.906,5.149,32.742,5.616,33.4C97.172,76.656,98.107,77.298,97.596,79.153z"></path><path d="M19.361,30.069c0.544,0.096,1.844,0.446,1.93-1.009C19.865,28.148,19.361,29.431,19.361,30.069z"></path></g></g><g id="SvgjsG1500" featureKey="nameFeature-0" transform="matrix(1.279238861369165,0,0,1.279238861369165,104.87542009414145,-2.8911447505344228)" fill="#2a2a2a"><path d="M19.59 12.012 l0 4.4922 l-6.8359 0 l0 23.496 l-5.0195 0 l0 -23.496 l-6.8555 0 l0 -4.4922 l18.711 0 z M42.01175 12.012 l5.0781 0 l0 27.988 l-5.0781 0 l0 -11.797 l-12.578 0 l0 11.797 l-5.0977 0 l0 -27.988 l5.0977 0 l0 11.738 l12.578 0 l0 -11.738 z M54.82423125 40 l0 -27.988 l5.0781 0 l0 27.988 l-5.0781 0 z M82.53953125 40 l-7.2461 -12.422 l-2.5586 0 l0 12.422 l-5.0977 0 l0 -27.988 l9.8633 0 c6.1523 0 8.8086 3.6719 8.8086 8.2227 c0 3.6719 -2.0508 6.1719 -6.0352 7.0117 l8.2422 12.754 l-5.9766 0 z M72.73433125 16.289 l0 7.2266 l4.0039 0 c3.3203 0 4.7266 -1.4453 4.7266 -3.5938 s-1.4063 -3.6328 -4.7266 -3.6328 l-4.0039 0 z M93.3593875 40 l0 -27.988 l9.7656 0 c8.8086 0 13.203 5.6836 13.203 13.984 c0 8.3203 -4.3945 14.004 -13.203 14.004 l-9.7656 0 z M98.4374875 35.4883 l4.4531 0 c5.5469 0 8.125 -3.5547 8.125 -9.4922 c0 -5.918 -2.5781 -9.4922 -8.125 -9.4922 l-4.4531 0 l0 18.984 z M151.13253125 40 l-2.1484 -6.0742 l-12.07 0 l-2.1484 6.0742 l-5.2148 0 l10.313 -27.988 l6.1719 0 l10.293 27.988 l-5.1953 0 z M138.43753125 29.628999999999998 l9.0234 0 l-4.5117 -12.754 z M173.242375 40.39063 c-8.125 0 -14.18 -5.5469 -14.18 -14.395 c0 -8.8281 6.0547 -14.355 14.18 -14.355 c5.9961 0 10.879 3.0469 12.93 8.1445 l-4.707 1.7773 c-1.3867 -3.3203 -4.4922 -5.2344 -8.2227 -5.2344 c-5.1367 0 -9.1406 3.5938 -9.1406 9.668 c0 6.1133 4.0039 9.6875 9.1406 9.6875 c3.7305 0 6.8359 -1.9141 8.2227 -5.2344 l4.707 1.7773 c-2.0508 5.0977 -6.9336 8.1641 -12.93 8.1641 z M207.09 12.012 l0 4.4922 l-6.8359 0 l0 23.496 l-5.0195 0 l0 -23.496 l-6.8555 0 l0 -4.4922 l18.711 0 z"></path></g>
			</g>
		</svg>
	